<?xml version="1.0" standalone="no"?>
<!DOCTYPE svg PUBLIC "-//W3C//DTD SVG 20010904//EN"
 "http://www.w3.org/TR/2001/REC-SVG-20010904/DTD/svg10.dtd">
<svg version="1.0" xmlns="http://www.w3.org/2000/svg"
 width="1280.000000pt" height="904.000000pt" viewBox="0 0 1280.000000 904.000000"
 preserveAspectRatio="xMidYMid meet">
<metadata>
Created by potrace 1.15, written by Peter Selinger 2001-2017
</metadata>
<g transform="translate(0.000000,904.000000) scale(0.100000,-0.100000)"
fill="#000000" stroke="none">
<path d="M6236 8540 c-6 -36 -45 -257 -140 -805 -111 -638 -246 -1413 -269
-1540 l-23 -129 -789 987 c-434 543 -790 986 -791 984 -3 -2 38 -116 348 -962
105 -286 250 -684 323 -885 73 -201 147 -402 164 -447 17 -46 29 -83 26 -83
-2 0 -19 7 -37 15 -18 8 -188 75 -378 149 -480 186 -863 335 -1075 418 -99 38
-324 126 -500 194 -176 69 -330 129 -343 135 -13 5 -21 6 -19 2 3 -5 277 -235
610 -513 l605 -505 -1177 -5 c-1108 -5 -1178 -6 -1212 -23 -20 -10 -47 -29
-60 -43 l-22 -24 1903 0 1903 0 76 59 c322 249 735 335 1125 236 181 -46 327
-116 485 -235 l79 -60 1933 0 1932 0 -24 26 c-59 63 28 59 -1225 64 l-1141 5
480 385 c264 212 530 426 592 475 62 50 111 92 109 94 -1 2 -52 -15 -111 -37
-59 -23 -182 -68 -273 -101 -91 -33 -228 -83 -305 -112 -223 -82 -275 -101
-540 -199 -137 -50 -292 -107 -342 -126 -51 -19 -136 -50 -188 -69 -228 -84
-289 -107 -444 -164 -90 -34 -166 -61 -168 -61 -2 0 0 8 6 18 8 15 65 160 141
357 15 39 82 212 150 385 68 173 135 347 150 385 34 89 294 756 399 1024 44
112 74 198 67 190 -8 -8 -94 -111 -193 -229 -395 -475 -1145 -1375 -1277
-1532 -77 -93 -142 -168 -146 -168 -3 0 -21 96 -38 213 -18 116 -52 347 -78
512 -25 165 -52 341 -59 390 -7 50 -34 227 -60 395 -25 168 -55 364 -66 435
-73 484 -86 559 -93 525z"/>
<path d="M1603 5285 c-123 -27 -215 -98 -248 -194 -25 -71 -31 -252 -12 -328
33 -128 64 -165 227 -275 185 -125 237 -167 251 -201 8 -19 14 -68 14 -120 0
-85 -1 -90 -29 -114 -29 -25 -67 -26 -91 -2 -5 6 -11 73 -13 149 l-4 140 -180
0 -181 0 6 -132 c3 -75 13 -156 22 -185 44 -146 198 -233 410 -233 196 0 336
64 392 178 26 52 28 68 31 197 8 286 -32 356 -293 523 -209 135 -215 142 -215
247 0 81 21 115 71 115 42 0 49 -16 49 -122 l0 -98 181 0 182 0 -6 118 c-3 64
-11 135 -19 156 -48 147 -308 232 -545 181z"/>
<path d="M4235 5290 c-131 -26 -241 -104 -290 -205 -37 -75 -49 -250 -42 -635
7 -393 22 -464 114 -551 76 -73 187 -109 338 -109 149 0 260 40 345 124 77 76
97 141 107 352 l6 134 -196 0 -197 0 0 -155 c0 -93 -4 -164 -11 -179 -21 -44
-84 -42 -109 4 -16 29 -13 918 3 950 9 19 22 26 48 28 66 6 69 -4 69 -219 l0
-189 197 0 196 0 -6 163 c-10 240 -26 296 -105 375 -96 97 -299 145 -467 112z"/>
<path d="M7600 5293 c-109 -18 -217 -81 -268 -156 -66 -95 -67 -105 -67 -592
0 -392 2 -446 18 -497 31 -102 114 -186 224 -228 111 -43 306 -38 419 10 67
29 146 110 180 183 l29 62 3 424 c4 534 -1 570 -100 677 -87 94 -275 144 -438
117z m147 -273 c10 -19 13 -127 11 -486 -3 -438 -4 -463 -22 -483 -24 -27 -48
-27 -72 0 -18 20 -19 43 -19 488 0 516 0 515 58 509 22 -2 36 -11 44 -28z"/>
<path d="M2280 4546 l0 -726 195 0 195 0 0 290 0 290 78 0 c158 0 271 39 316
108 34 52 46 131 46 306 0 179 -12 266 -46 323 -30 52 -62 75 -144 104 -60 21
-86 23 -352 27 l-288 4 0 -726z m464 462 c34 -15 46 -60 46 -173 0 -147 -20
-185 -96 -185 l-24 0 0 185 0 185 25 0 c13 0 36 -5 49 -12z"/>
<path d="M3180 4545 l0 -725 330 0 330 0 0 145 0 145 -140 0 -141 0 3 158 3
157 118 3 117 3 0 140 0 140 -117 -2 -118 -1 0 133 0 134 128 3 127 3 0 144 0
145 -320 0 -320 0 0 -725z"/>
<path d="M4910 4545 l0 -725 190 0 190 0 0 725 0 725 -190 0 -190 0 0 -725z"/>
<path d="M5510 5262 c0 -5 -43 -325 -95 -713 -52 -387 -95 -710 -95 -716 0
-10 46 -13 199 -13 l198 0 7 113 c10 155 5 147 81 147 l64 0 5 -32 c3 -18 8
-77 12 -130 l6 -98 194 0 c107 0 194 3 194 8 1 4 -48 330 -107 724 l-108 718
-277 0 c-153 0 -278 -4 -278 -8z m345 -859 l7 -63 -67 0 c-58 0 -66 2 -61 18
2 9 7 53 11 97 4 44 18 163 31 265 13 102 25 190 25 195 1 6 11 -93 24 -220
12 -126 26 -258 30 -292z"/>
<path d="M6310 4545 l0 -725 310 0 310 0 0 145 0 145 -120 0 -120 0 0 580 0
580 -190 0 -190 0 0 -725z"/>
<path d="M8250 4545 l0 -725 190 0 190 0 0 305 0 305 120 0 121 0 -3 138 -3
137 -117 3 -118 3 0 134 0 135 135 0 135 0 0 145 0 145 -325 0 -325 0 0 -725z"/>
<path d="M8950 4545 l0 -725 190 0 190 0 2 303 3 302 118 3 117 3 0 140 0 140
-117 -2 -118 -1 -3 136 -3 136 136 0 135 0 0 145 0 145 -325 0 -325 0 0 -725z"/>
<path d="M9650 4545 l0 -725 330 0 330 0 0 145 0 145 -135 0 -135 0 0 160 0
160 115 0 115 0 0 141 0 140 -115 -2 c-63 -1 -115 1 -115 5 0 3 0 65 0 136 l0
130 125 0 125 0 0 145 0 145 -320 0 -320 0 0 -725z"/>
<path d="M10390 4545 l0 -725 190 0 190 0 0 325 0 325 29 0 c16 0 39 -9 52
-19 l24 -19 3 -306 3 -306 180 0 180 0 -3 298 -3 297 -27 46 c-33 57 -44 66
-113 94 l-56 23 43 6 c65 10 106 39 131 94 19 41 21 65 22 187 0 174 -15 231
-80 303 -26 28 -63 57 -87 67 -57 22 -221 35 -470 35 l-208 0 0 -725z m473
443 c16 -19 18 -38 15 -140 -2 -69 -8 -122 -14 -128 -6 -7 -30 -14 -53 -17
l-41 -6 0 163 0 163 38 -6 c21 -4 45 -16 55 -29z"/>
<path d="M1506 3569 c10 -12 37 -31 59 -43 l40 -21 1138 -3 1138 -2 -228 -183
c-125 -101 -390 -313 -588 -471 -198 -159 -364 -293 -370 -299 -16 -15 3 -9
400 138 204 75 442 163 530 195 88 32 234 86 325 120 91 34 219 81 285 105 66
24 156 57 200 73 44 16 136 50 205 76 69 25 190 70 270 100 80 29 146 52 148
51 3 -3 -97 -262 -412 -1070 -103 -264 -242 -619 -308 -790 -67 -170 -138
-353 -159 -405 -21 -52 -37 -95 -36 -97 2 -1 368 437 815 973 669 803 812 970
817 952 2 -13 14 -84 25 -158 39 -264 120 -796 134 -890 31 -197 109 -708 162
-1060 30 -201 56 -369 58 -375 2 -5 6 10 10 35 4 25 32 182 61 350 29 168 74
427 100 575 47 270 103 594 210 1205 32 179 58 326 60 328 1 1 356 -441 790
-983 433 -542 789 -985 791 -985 2 0 -9 35 -25 78 -16 42 -154 419 -306 837
-153 418 -335 917 -406 1110 -70 192 -127 351 -126 352 1 0 76 -28 167 -63
376 -147 562 -219 870 -339 293 -114 452 -176 795 -310 296 -116 473 -185 500
-194 l30 -11 -26 22 c-15 13 -291 244 -613 513 l-586 490 1172 5 1173 5 46 27
c25 15 51 34 59 42 11 15 -168 16 -1884 16 l-1896 0 -83 -71 c-105 -91 -170
-135 -284 -193 -194 -97 -364 -136 -591 -136 -337 0 -619 107 -873 331 l-78
69 -1862 0 -1862 0 19 -21z"/>
</g>
</svg>
