<?xml version="1.0" standalone="no"?>
<!DOCTYPE svg PUBLIC "-//W3C//DTD SVG 20010904//EN"
 "http://www.w3.org/TR/2001/REC-SVG-20010904/DTD/svg10.dtd">
<svg version="1.0" xmlns="http://www.w3.org/2000/svg"
 width="1280.000000pt" height="904.000000pt" viewBox="0 0 1280.000000 904.000000"
 preserveAspectRatio="xMidYMid meet">
<metadata>
Created by potrace 1.15, written by Peter Selinger 2001-2017
</metadata>
<g transform="translate(0.000000,904.000000) scale(0.100000,-0.100000)"
fill="#000000" stroke="none">
<path d="M1507 5793 c-9 -2 -15 -8 -13 -12 3 -4 1 -13 -5 -21 -6 -10 -9 -11
-9 -2 0 20 -38 14 -50 -9 -7 -11 -14 -18 -17 -16 -6 7 -45 -31 -59 -58 -16
-32 -19 -236 -2 -246 10 -7 11 -12 1 -29 -17 -26 -16 -40 0 -40 17 0 15 -42
-1 -48 -18 -6 -14 -39 6 -47 16 -6 16 -7 0 -19 -20 -15 -23 -42 -8 -81 7 -17
7 -24 0 -20 -6 4 -10 -6 -10 -23 0 -25 3 -29 25 -26 14 1 32 7 40 14 9 7 15 7
19 1 4 -6 14 -7 23 -4 11 4 14 3 9 -5 -4 -7 -1 -12 8 -12 9 0 16 5 16 10 0 6
5 10 10 10 19 0 10 -19 -12 -26 -13 -4 -33 -15 -46 -25 -13 -10 -29 -16 -37
-13 -8 3 -21 -6 -31 -21 -24 -36 -33 -193 -13 -206 10 -6 11 -9 2 -9 -7 0 -13
-5 -13 -11 0 -5 5 -7 10 -4 6 3 10 1 10 -4 0 -6 -4 -11 -10 -11 -14 0 -13 -37
2 -46 8 -5 9 -1 4 12 -6 15 -5 17 5 7 7 -7 23 -13 36 -13 15 0 23 -6 23 -16 0
-16 11 -16 53 1 12 5 17 2 17 -9 0 -10 6 -13 15 -10 20 8 48 -3 40 -16 -5 -8
-11 -8 -20 0 -10 9 -19 6 -36 -11 -17 -17 -19 -23 -8 -30 10 -6 8 -9 -9 -9
-14 0 -21 4 -17 10 4 7 -2 9 -18 5 -21 -6 -26 -2 -36 26 -9 27 -13 30 -26 19
-13 -11 -13 -15 -3 -21 10 -7 9 -9 -4 -9 -9 0 -18 5 -20 12 -2 6 -5 -26 -6
-72 -2 -59 1 -86 10 -92 10 -6 10 -8 1 -8 -7 0 -13 -9 -13 -21 0 -14 4 -18 13
-12 6 4 15 8 19 8 5 0 21 12 37 28 16 15 39 27 50 27 26 0 27 15 4 29 -30 18
-9 12 35 -9 22 -11 46 -20 52 -20 5 0 10 -5 10 -10 0 -6 -6 -10 -12 -9 -27 4
-99 -14 -95 -24 5 -15 47 -19 84 -6 27 9 36 8 49 -5 18 -18 30 -20 39 -6 3 6
-3 10 -14 10 -12 0 -21 6 -21 14 0 19 30 29 46 15 10 -8 14 -8 14 0 0 6 -5 11
-11 11 -5 0 -7 5 -4 10 4 6 -5 10 -19 10 -29 0 -30 3 -15 31 9 17 13 18 26 7
8 -7 31 -18 49 -24 33 -11 40 -8 35 19 -1 5 7 6 17 3 16 -5 19 -2 16 21 -1 16
-2 36 -3 46 -1 10 -9 17 -20 17 -11 0 -22 -8 -24 -17 -4 -17 -5 -17 -6 0 -1
13 -7 16 -26 11 -20 -5 -25 -2 -31 21 -5 19 -2 30 12 40 18 14 18 14 -1 15
-20 1 -20 1 -1 15 26 19 56 19 56 0 0 -8 -5 -15 -11 -15 -5 0 -7 -5 -4 -10 4
-6 18 -9 32 -7 28 4 37 33 23 71 -6 17 -7 17 -23 1 -15 -14 -17 -15 -17 -1 0
9 -7 16 -15 16 -9 0 -18 7 -21 15 -5 12 -10 13 -20 4 -11 -9 -14 -8 -14 5 0 9
-4 16 -10 16 -5 0 -10 6 -10 14 0 12 15 23 40 31 32 10 60 33 73 61 16 33 16
34 -8 40 -14 3 -36 7 -49 8 -20 1 -22 4 -15 19 5 9 6 17 1 17 -4 0 -8 9 -9 20
-1 16 2 18 24 9 18 -7 30 -6 37 1 5 5 19 10 31 11 11 0 14 3 8 6 -8 3 -10 11
-5 21 5 9 7 32 6 50 -1 17 -2 43 -3 57 -1 22 -5 25 -30 20 -25 -4 -32 0 -50
28 -20 33 -61 47 -85 28 -14 -11 -46 -10 -46 1 0 8 14 12 36 9 7 -1 14 8 17
20 5 20 10 21 77 16 l72 -6 13 32 c8 18 14 26 15 19 0 -19 60 25 60 44 0 8 3
13 8 13 19 -3 33 2 28 10 -3 5 0 8 7 8 6 -1 33 5 60 12 46 13 59 25 35 33 -6
2 -8 10 -4 17 5 7 14 10 22 7 12 -5 18 5 15 26 -1 10 61 -2 77 -15 7 -6 11
-19 10 -30 -3 -20 3 -20 224 -19 125 0 233 4 239 8 7 4 9 3 6 -3 -4 -7 5 -10
24 -8 17 1 35 8 39 15 6 9 9 9 12 0 3 -9 146 -12 615 -13 l611 -2 -1 25 c-2
21 3 26 27 28 26 3 28 1 24 -21 -4 -22 -1 -24 39 -26 25 0 49 1 54 5 17 10
-12 34 -42 34 -16 0 -29 5 -29 11 0 6 9 9 20 6 11 -3 20 -1 20 4 0 5 16 3 35
-5 19 -8 35 -12 35 -9 0 3 7 0 15 -7 13 -10 15 -9 15 8 0 16 4 20 16 15 14 -5
15 -3 5 15 -6 11 -8 28 -4 38 5 13 3 16 -10 11 -18 -7 -44 18 -28 27 5 4 12 2
16 -4 3 -5 11 -10 16 -10 6 0 8 4 4 9 -3 5 -1 12 5 16 5 3 10 19 10 34 0 39
19 53 58 42 35 -10 82 5 82 27 0 6 5 12 10 12 6 0 10 -5 10 -12 0 -6 3 -8 7
-5 9 10 33 -41 27 -57 -6 -16 29 -31 46 -21 5 3 10 2 10 -4 0 -5 -14 -12 -30
-16 -17 -4 -27 -11 -24 -16 3 -6 8 -8 11 -5 9 9 43 -14 43 -28 0 -20 -32 -25
-66 -12 -35 14 -46 14 -101 -2 -34 -10 -40 -16 -36 -32 3 -11 16 -23 29 -26
28 -7 31 -19 7 -33 -17 -10 -16 -10 2 -12 22 -1 57 -1 95 1 14 0 153 0 309 0
211 -1 286 1 291 10 6 9 9 9 11 1 3 -8 41 -12 114 -12 139 -1 135 -1 135 12 0
7 -12 10 -29 7 -22 -3 -27 -1 -24 13 3 12 13 16 36 13 18 -1 37 -3 44 -3 7 -1
10 -11 8 -24 -4 -20 -1 -22 39 -21 51 1 67 9 60 29 -6 15 -3 15 70 6 6 0 1 -8
-10 -16 -18 -14 -18 -14 6 -15 104 -4 759 -2 767 3 5 3 15 2 22 -2 20 -13 83
-2 96 16 10 14 9 23 -6 50 -11 19 -14 33 -8 33 6 0 9 7 5 15 -7 19 8 19 24 0
7 -8 17 -12 22 -9 6 4 26 10 45 14 32 8 35 6 58 -30 25 -39 56 -57 76 -44 7 4
10 3 7 -2 -3 -5 -2 -18 1 -28 7 -18 20 -19 251 -18 164 0 246 4 248 11 2 7 8
6 17 -3 16 -15 96 -11 106 6 5 7 8 7 10 0 2 -7 42 -11 99 -12 123 -2 120 -2
86 15 -15 8 -32 13 -36 10 -4 -3 -10 1 -13 9 -3 8 2 16 14 19 10 3 19 12 19
20 0 10 11 14 40 14 22 0 43 2 47 6 3 4 13 7 22 6 10 0 7 -4 -7 -10 -13 -5
-20 -13 -17 -19 3 -5 2 -10 -4 -10 -7 0 -7 -8 -1 -26 6 -14 8 -30 4 -35 -9
-15 2 -10 31 15 l28 24 33 -20 c30 -17 53 -19 282 -20 162 0 256 4 270 11 15
8 27 7 48 -4 28 -14 57 -9 33 6 -9 6 -10 9 -2 9 6 0 13 10 15 22 3 19 10 22
58 24 70 4 102 -11 94 -43 -4 -12 -2 -23 2 -24 70 -4 134 -2 134 4 0 4 -4 7
-10 7 -6 0 -5 10 2 25 8 18 19 25 40 25 17 0 27 4 23 10 -3 6 1 10 10 10 9 0
26 9 38 20 12 11 30 19 41 18 10 -2 21 3 23 10 3 7 -5 12 -21 12 -27 0 -41 14
-30 31 4 8 9 7 15 -2 11 -18 21 -6 13 15 -5 13 -14 15 -35 11 -20 -5 -29 -3
-31 7 0 7 -2 18 -2 23 -1 6 -5 15 -8 21 -8 13 32 34 65 34 14 0 29 -11 39 -27
10 -16 18 -22 18 -15 0 9 7 9 31 -3 22 -12 29 -21 24 -33 -3 -9 -9 -29 -12
-44 -3 -16 -9 -28 -14 -28 -5 0 -9 -10 -9 -22 0 -13 -7 -32 -15 -42 -8 -10
-12 -23 -9 -28 3 -5 -4 -16 -16 -26 -20 -16 -14 -17 142 -16 127 1 171 5 200
18 26 11 36 21 32 31 -8 19 -18 19 -34 0 -14 -17 -130 -22 -130 -6 0 5 -11 12
-25 15 -14 4 -23 11 -20 16 3 6 1 10 -4 10 -19 0 -11 15 14 27 18 8 36 8 61 1
20 -5 42 -7 50 -4 8 3 14 0 14 -7 0 -8 20 -13 56 -15 31 -2 66 -9 78 -17 12
-8 44 -15 72 -16 47 -2 50 -4 46 -26 -4 -22 -3 -23 74 -24 129 -2 176 0 181 5
3 3 16 1 29 -4 15 -6 26 -6 29 1 4 5 16 7 28 3 12 -4 112 -6 222 -5 110 1 209
2 220 2 11 0 35 -3 53 -6 27 -5 32 -3 32 14 0 11 -4 23 -10 26 -14 9 -12 45 3
45 8 0 7 4 -3 10 -8 5 -10 10 -4 10 5 0 23 -13 39 -30 27 -28 64 -43 50 -20
-11 18 10 11 35 -12 47 -42 57 -48 74 -42 12 5 14 10 6 19 -7 9 -8 15 -1 19 6
4 8 14 5 24 -4 11 -3 13 3 6 4 -7 24 -14 43 -15 43 -5 70 -26 49 -40 -14 -9 0
-11 76 -11 51 -1 54 1 53 31 -1 36 9 52 27 45 10 -4 13 0 10 18 -8 43 -27 78
-42 78 -10 0 -12 6 -8 20 4 14 1 22 -12 26 -29 11 -53 47 -41 61 5 7 7 17 3
22 -7 12 -362 12 -385 0 -8 -4 -30 -21 -48 -38 -37 -34 -72 -41 -73 -13 0 11
-2 12 -6 4 -6 -15 -51 -62 -60 -62 -3 0 -3 9 0 20 4 17 1 19 -18 16 -21 -4
-24 0 -27 27 -2 27 -8 33 -30 35 -16 2 -28 -2 -28 -8 0 -10 -42 -5 -65 9 -33
19 -45 -1 -24 -40 8 -16 7 -26 -5 -44 -13 -20 -21 -23 -52 -18 -39 6 -74 33
-74 57 0 8 -6 17 -12 19 -10 4 -10 6 0 6 6 1 12 10 12 20 0 19 -13 20 -527 20
-421 0 -534 -3 -558 -14 -40 -18 -91 -23 -88 -8 1 6 -6 9 -17 6 -11 -3 -26 -1
-33 5 -6 6 -49 10 -95 10 -76 0 -82 -2 -77 -19 4 -11 2 -19 -4 -19 -6 0 -11 7
-11 15 0 9 -10 16 -27 17 -85 5 -1063 4 -1063 -2 0 -3 5 -11 11 -17 5 -5 11
-36 12 -67 2 -54 12 -72 23 -41 10 26 19 16 21 -25 l3 -41 -36 35 c-29 29 -40
33 -55 25 -15 -7 -17 -6 -13 6 5 12 -2 15 -29 15 -19 0 -38 -6 -40 -12 -4 -10
-6 -10 -6 -1 -1 7 -12 23 -25 36 -21 21 -23 30 -17 59 l8 35 -613 0 -614 0
-29 -28 c-21 -20 -36 -26 -51 -22 -16 4 -28 -1 -41 -18 -23 -31 -33 -20 -21
25 6 20 7 37 4 39 -4 2 -134 4 -289 4 l-282 1 -10 -29 c-13 -37 -23 -37 -19
-2 3 23 -1 27 -25 29 -15 2 -25 -1 -22 -6 3 -4 1 -10 -4 -12 -5 -1 -13 -15
-16 -30 -9 -35 15 -39 38 -5 l15 22 -1 -22 c-1 -12 -7 -25 -15 -28 -8 -3 -12
-16 -10 -32 2 -18 -2 -27 -10 -25 -6 1 -17 3 -23 5 -6 1 -13 -6 -14 -16 -5
-27 -11 -30 -27 -14 -7 8 -23 19 -36 26 -12 6 -21 17 -19 23 1 7 -8 17 -20 23
-14 6 -23 19 -23 31 0 12 -7 25 -16 28 -9 3 -14 12 -11 20 4 10 -8 14 -50 15
-31 0 -53 -2 -49 -7 4 -4 13 -7 19 -7 18 0 20 -31 3 -62 -8 -15 -15 -21 -16
-13 0 20 -65 21 -65 1 0 -8 -13 -15 -32 -17 -18 -2 -33 1 -33 6 0 6 5 10 11
10 8 0 8 5 -1 15 -11 13 -8 15 19 15 17 0 31 5 31 10 0 6 -5 10 -11 10 -5 0
-8 4 -5 9 14 22 -27 29 -157 28 -129 0 -137 -1 -132 -18 4 -12 1 -19 -7 -20
-7 0 -21 -2 -30 -4 -11 -2 -18 3 -18 11 0 9 5 12 13 8 9 -5 9 -3 -1 7 -10 11
-66 14 -285 15 -171 1 -274 -2 -278 -9 -4 -5 -12 -6 -20 -1 -8 5 -110 9 -227
10 -178 2 -213 0 -208 -12 3 -7 1 -16 -5 -19 -5 -4 -9 -3 -8 2 1 4 1 13 0 18
-1 14 -618 17 -627 4 -3 -5 -11 -6 -17 -2 -18 12 -71 11 -79 -1 -5 -8 -8 -7
-8 1 0 9 -26 12 -95 11 -85 -1 -117 -9 -83 -20 6 -2 8 -10 4 -16 -4 -7 -16
-10 -27 -7 -25 8 -26 -20 -2 -34 15 -8 14 -10 -10 -16 -16 -4 -44 -5 -63 -2
-20 3 -34 2 -34 -4 0 -6 -4 -8 -9 -5 -15 10 -29 -18 -20 -39 4 -11 8 -14 8 -6
1 8 4 12 7 8 3 -3 -1 -16 -10 -29 -13 -18 -16 -19 -16 -5 0 21 -1 21 -56 -4
-28 -14 -43 -27 -40 -35 3 -7 0 -16 -6 -20 -7 -4 -8 -3 -4 4 9 15 -40 35 -65
27 -22 -7 -14 -35 11 -35 20 0 34 -26 23 -43 -3 -7 4 -3 17 8 l23 20 -12 -22
c-14 -28 -31 -39 -40 -24 -4 6 -36 12 -71 14 -52 3 -67 7 -75 23 -5 10 -18 20
-29 22 -11 2 -15 -1 -11 -8 4 -7 -5 -6 -22 3 -23 12 -32 13 -46 2 -11 -8 -15
-19 -11 -30 5 -13 2 -16 -17 -13 -13 1 -31 11 -39 21 -21 25 -19 122 2 168 16
32 22 36 60 37 59 3 75 9 82 34 6 26 -2 38 -13 19 -6 -9 -11 -10 -15 -2 -7 11
-35 13 -69 4z m5673 -19 c0 -8 -5 -12 -10 -9 -6 4 -8 11 -5 16 9 14 15 11 15
-7z m-690 -36 c0 -4 7 -14 16 -22 14 -15 11 -16 -31 -16 -38 0 -48 4 -52 20
-3 11 -10 20 -15 20 -5 0 -6 5 -3 10 4 6 10 8 15 5 4 -3 11 2 14 11 5 13 9 13
31 -3 13 -10 25 -21 25 -25z m-2180 28 c0 -2 -7 -7 -16 -10 -8 -3 -12 -2 -9 4
6 10 25 14 25 6z m-559 -27 c6 -12 7 -24 3 -28 -5 -3 -14 -15 -19 -25 -16 -27
-72 -32 -80 -6 -4 11 -11 20 -17 20 -7 0 -6 5 1 14 7 8 19 13 28 12 9 -2 25 6
35 16 23 23 35 23 49 -3z m3604 1 c3 -5 1 -10 -4 -10 -6 0 -11 5 -11 10 0 6 2
10 4 10 3 0 8 -4 11 -10z m-4297 -23 c6 3 12 0 12 -6 0 -6 -7 -11 -16 -11 -8
0 -12 -4 -9 -10 3 -6 -1 -7 -9 -4 -9 4 -18 -1 -22 -10 -3 -9 -10 -16 -15 -16
-6 0 -5 9 1 21 7 11 9 23 6 26 -3 4 0 13 6 20 10 13 13 13 22 1 6 -8 17 -13
24 -11z m4172 13 c0 -5 -2 -10 -4 -10 -3 0 -8 5 -11 10 -3 6 -1 10 4 10 6 0
11 -4 11 -10z m-4954 -37 c15 2 38 -2 53 -9 14 -8 34 -11 44 -8 9 3 17 0 17
-6 0 -6 4 -9 8 -6 4 2 9 -4 9 -15 2 -16 -1 -18 -12 -9 -15 13 -57 -9 -75 -39
-8 -13 -11 -14 -19 -2 -5 7 -14 10 -20 7 -6 -4 -17 -4 -23 1 -13 8 -54 14 -95
15 -13 0 -23 4 -23 9 0 5 4 9 9 9 5 0 8 12 6 26 -2 18 1 22 8 15 15 -15 30
-14 21 1 -5 8 0 9 15 5 21 -5 23 -3 18 21 l-5 27 19 -24 c14 -17 26 -22 45
-18z m139 27 c3 -5 1 -10 -4 -10 -6 0 -11 5 -11 10 0 6 2 10 4 10 3 0 8 -4 11
-10z m206 -13 c-10 -9 -11 -8 -5 6 3 10 9 15 12 12 3 -3 0 -11 -7 -18z m114
13 c-3 -5 -12 -10 -18 -10 -7 0 -6 4 3 10 19 12 23 12 15 0z m4572 -6 c-3 -3
-12 -4 -19 -1 -8 3 -5 6 6 6 11 1 17 -2 13 -5z m609 -29 c-3 -8 -10 -15 -16
-15 -14 0 -12 37 3 43 15 5 21 -8 13 -28z m-5411 15 c3 -5 -1 -10 -10 -10 -9
0 -13 5 -10 10 3 6 8 10 10 10 2 0 7 -4 10 -10z m95 0 c0 -5 -5 -10 -11 -10
-5 0 -7 5 -4 10 3 6 8 10 11 10 2 0 4 -4 4 -10z m1897 -12 c-3 -8 -6 -5 -6 6
-1 11 2 17 5 13 3 -3 4 -12 1 -19z m278 13 c3 -5 1 -12 -5 -16 -5 -3 -10 1
-10 9 0 18 6 21 15 7z m4537 -24 c10 -3 10 -7 1 -17 -10 -10 -8 -19 8 -41 27
-38 17 -51 -25 -34 -18 8 -37 11 -40 7 -4 -3 -4 1 0 11 3 9 11 14 17 10 5 -3
8 -2 6 3 -32 63 -32 63 -20 78 11 13 15 13 27 2 7 -8 19 -16 26 -19z m-6037
13 c3 -5 1 -10 -4 -10 -6 0 -11 5 -11 10 0 6 2 10 4 10 3 0 8 -4 11 -10z
m3445 -5 c0 -8 -4 -15 -10 -15 -5 0 -7 7 -4 15 4 8 8 15 10 15 2 0 4 -7 4 -15z
m-4620 -5 c13 -8 13 -10 -2 -10 -9 0 -20 5 -23 10 -8 13 5 13 25 0z m3280 -26
c0 -18 41 -22 68 -5 32 19 69 22 83 5 16 -19 40 -18 32 2 -8 22 26 15 41 -9 9
-15 7 -21 -8 -32 -26 -20 -12 -31 19 -17 22 10 25 9 25 -9 0 -28 -20 -46 -45
-41 -12 2 -29 -4 -38 -13 -10 -9 -17 -13 -17 -8 0 4 -6 1 -13 -7 -13 -17 -67
-27 -67 -12 0 5 -7 9 -15 9 -12 0 -12 -3 -2 -15 10 -13 8 -14 -13 -7 -14 4
-32 14 -42 22 -14 13 -17 12 -27 -4 -10 -17 -10 -16 -11 5 0 12 -5 22 -11 22
-6 0 -4 7 5 15 24 25 28 52 10 79 -20 31 -12 65 11 46 8 -7 15 -18 15 -26z
m4827 21 c0 -6 -6 -12 -12 -12 -6 0 -12 6 -12 12 0 6 6 12 12 12 6 0 12 -6 12
-12z m-8172 -5 c3 -5 1 -10 -4 -10 -6 0 -11 5 -11 10 0 6 2 10 4 10 3 0 8 -4
11 -10z m575 0 c-20 -13 -33 -13 -25 0 3 6 14 10 23 10 15 0 15 -2 2 -10z
m780 4 c0 -4 -8 -13 -17 -21 -17 -14 -17 -14 1 -9 16 6 17 4 6 -9 -10 -12 -10
-15 3 -15 8 0 17 6 20 13 2 6 8 9 12 5 4 -4 -6 -15 -24 -25 -17 -10 -33 -25
-36 -34 -6 -19 -82 -22 -89 -3 -7 17 34 74 54 74 10 0 23 7 30 15 12 15 40 21
40 9z m1090 1 c0 -2 -10 -9 -22 -15 -22 -11 -22 -10 -4 4 21 17 26 19 26 11z
m1530 -10 c8 -7 26 -16 39 -20 22 -7 22 -8 7 -17 -9 -5 -24 -7 -32 -4 -8 3
-14 1 -14 -4 0 -15 -46 -12 -59 3 -6 8 -7 17 -3 21 4 4 8 12 8 17 2 15 3 16
22 16 9 0 24 -5 32 -12z m-3507 -19 c10 -8 15 -20 11 -30 -7 -18 -24 -22 -24
-6 0 6 -6 9 -12 8 -7 -2 -14 7 -16 20 -4 25 13 29 41 8z m4737 4 c0 -5 -5 -10
-11 -10 -5 0 -7 5 -4 10 3 6 8 10 11 10 2 0 4 -4 4 -10z m-3460 -20 c0 -14 -7
-20 -22 -20 -20 0 -21 1 -3 20 10 11 20 20 22 20 1 0 3 -9 3 -20z m5975 -18
c14 6 25 15 25 20 0 4 4 8 9 8 5 0 11 -18 13 -40 3 -31 0 -40 -12 -41 -8 0
-24 -3 -35 -6 -44 -11 -106 -13 -101 -4 4 5 2 12 -3 16 -6 3 -8 12 -4 20 3 9
-1 15 -8 15 -8 0 -1 11 15 25 l30 26 23 -25 c20 -22 27 -24 48 -14z m-2562 8
c4 0 5 5 2 10 -3 6 -1 10 4 10 14 0 14 -17 0 -26 -6 -3 -17 1 -25 10 -8 9 -9
11 -2 6 7 -6 16 -10 21 -10z m315 -18 c-13 -6 -38 6 -38 17 0 16 35 18 41 1 4
-8 2 -17 -3 -18z m-6085 3 c4 -8 3 -16 -1 -19 -4 -3 -9 4 -9 15 -2 23 3 25 10
4z m2944 -7 c-3 -8 -6 -5 -6 6 -1 11 2 17 5 13 3 -3 4 -12 1 -19z m5008 12
c-3 -5 -10 -10 -16 -10 -5 0 -9 5 -9 10 0 6 7 10 16 10 8 0 12 -4 9 -10z
m-7485 -35 c-19 -23 -29 -18 -17 9 7 15 16 21 21 16 6 -6 4 -15 -4 -25z m3965
25 c4 -6 11 -7 17 -4 7 5 9 1 5 -9 -3 -9 -1 -18 6 -20 7 -3 -1 -10 -16 -16
-20 -8 -27 -16 -23 -29 5 -15 -2 -17 -61 -19 -37 -1 -61 2 -54 6 9 6 9 11 -3
20 -8 7 -12 19 -9 27 4 11 9 12 16 5 14 -14 30 -14 22 -1 -3 5 0 8 7 5 7 -3
26 6 42 20 32 27 42 30 51 15z m4305 -2 c0 -4 -4 -8 -9 -8 -6 0 -12 4 -15 8
-3 5 1 9 9 9 8 0 15 -4 15 -9z m-8160 -7 c0 -5 12 -12 26 -15 15 -4 24 -9 21
-13 -3 -3 -20 2 -36 10 -20 10 -31 11 -31 5 0 -6 -3 -9 -6 -5 -8 7 4 27 17 27
5 0 9 -4 9 -9z m2420 -1 c0 -5 -5 -10 -11 -10 -5 0 -7 5 -4 10 3 6 8 10 11 10
2 0 4 -4 4 -10z m2331 -7 c13 -17 13 -17 -6 -3 -11 8 -22 16 -24 17 -2 2 0 3
6 3 6 0 17 -8 24 -17z m826 2 c0 -8 -4 -12 -9 -9 -5 3 -6 10 -3 15 9 13 12 11
12 -6z m1858 -5 c-3 -4 1 -11 7 -14 7 -3 4 -4 -6 -3 -10 1 -21 -4 -23 -10 -3
-7 0 -13 6 -13 6 0 11 -4 11 -10 0 -16 -36 -11 -61 8 l-22 19 39 19 c38 20 60
21 49 4z m-8035 -5 c0 -8 -2 -15 -4 -15 -2 0 -6 7 -10 15 -3 8 -1 15 4 15 6 0
10 -7 10 -15z m5739 -10 c3 -3 -9 -3 -28 0 -25 4 -31 2 -25 -7 4 -7 3 -9 -1
-5 -5 4 -10 14 -11 21 -1 11 5 12 28 5 17 -4 33 -11 37 -14z m281 15 c0 -5 -2
-10 -4 -10 -3 0 -8 5 -11 10 -3 6 -1 10 4 10 6 0 11 -4 11 -10z m-5117 -20
c-3 -12 -8 -19 -11 -16 -5 6 5 36 12 36 2 0 2 -9 -1 -20z m902 0 c7 -21 25
-28 25 -10 0 6 -5 10 -11 10 -5 0 -7 5 -4 10 3 6 13 10 21 10 16 0 13 -42 -4
-48 -6 -2 -9 -9 -6 -15 3 -8 -7 -13 -27 -13 -17 -1 -27 1 -21 5 13 8 4 51 -10
51 -5 0 -6 5 -3 10 10 17 33 11 40 -10z m278 -10 c-7 -28 -13 -25 -13 6 0 14
4 23 9 20 5 -3 7 -15 4 -26z m707 20 c0 -5 -2 -10 -4 -10 -3 0 -8 5 -11 10 -3
6 -1 10 4 10 6 0 11 -4 11 -10z m783 -21 c-6 -6 -27 -12 -49 -14 l-39 -5 40
19 c38 19 66 18 48 0z m4662 -7 c2 -30 -12 -28 -18 3 -2 15 0 24 6 22 6 -2 11
-13 12 -25z m-7681 4 c-21 -15 -30 -14 -19 3 3 6 14 11 23 11 13 0 13 -2 -4
-14z m1326 4 c13 -8 13 -10 -2 -10 -9 0 -20 5 -23 10 -8 13 5 13 25 0z m3891
3 c0 -5 2 -16 4 -25 2 -10 -1 -18 -6 -18 -5 0 -9 4 -9 9 0 5 -3 16 -6 25 -3 9
-1 16 5 16 6 0 11 -3 12 -7z m193 -20 c-9 -7 -21 -10 -26 -7 -14 9 -1 20 22
20 20 0 20 -1 4 -13z m1964 -9 c-16 -34 -44 -37 -46 -4 -2 23 2 27 27 27 26 0
28 -2 19 -23z m-7188 -4 c-11 -21 -30 -27 -30 -9 0 5 5 7 10 4 6 -3 10 1 10 9
0 9 5 16 10 16 7 0 7 -6 0 -20z m324 12 c3 -5 -1 -9 -9 -9 -8 0 -12 4 -9 9 3
4 7 8 9 8 2 0 6 -4 9 -8z m-567 -8 c-3 -3 -12 -4 -19 -1 -8 3 -5 6 6 6 11 1
17 -2 13 -5z m4153 -14 c0 -5 -8 -10 -17 -10 -15 0 -16 2 -3 10 19 12 20 12
20 0z m3780 0 c0 -5 -2 -10 -4 -10 -3 0 -8 5 -11 10 -3 6 -1 10 4 10 6 0 11
-4 11 -10z m-8223 -64 c-4 -9 -13 -12 -28 -9 l-23 6 23 9 c14 5 20 13 15 20
-5 10 -4 10 6 1 7 -6 10 -18 7 -27z m130 28 c-3 -3 -12 -4 -19 -1 -8 3 -5 6 6
6 11 1 17 -2 13 -5z m-347 -14 c0 -5 -2 -10 -4 -10 -3 0 -8 5 -11 10 -3 6 -1
10 4 10 6 0 11 -4 11 -10z m275 -10 c-3 -5 -12 -10 -18 -10 -7 0 -6 4 3 10 19
12 23 12 15 0z m-180 -19 c-3 -6 -11 -11 -16 -11 -5 0 -4 6 3 14 14 16 24 13
13 -3z m195 4 c-7 -8 -17 -15 -23 -15 -6 0 -2 7 9 15 25 19 30 19 14 0z m-260
-59 c0 -3 -4 -8 -10 -11 -5 -3 -10 -1 -10 4 0 6 5 11 10 11 6 0 10 -2 10 -4z
m160 -114 c0 -10 -35 -52 -43 -52 -2 0 -7 11 -9 24 -5 25 -3 26 45 35 4 0 7
-3 7 -7z m-19 -65 c-10 -9 -11 -8 -5 6 3 10 9 15 12 12 3 -3 0 -11 -7 -18z
m59 -9 c0 -5 -12 -13 -26 -18 -33 -13 -44 -12 -21 1 9 6 15 13 13 17 -3 4 4 8
15 8 10 0 19 -4 19 -8z m34 -3 c3 -8 12 -15 19 -15 8 0 22 -9 32 -20 17 -19
17 -20 -9 -30 -35 -13 -56 -13 -56 1 0 6 -6 9 -13 6 -9 -3 -13 4 -12 21 0 14
6 27 13 30 6 2 10 8 6 13 -3 5 -1 9 4 9 6 0 12 -7 16 -15z m-110 -215 c-6 -6
-10 -3 -10 10 0 13 4 16 10 10 7 -7 7 -13 0 -20z m121 0 c3 -5 -1 -10 -10 -10
-9 0 -13 5 -10 10 3 6 8 10 10 10 2 0 7 -4 10 -10z m-106 -52 c-5 -10 -15 -18
-22 -18 -8 0 -7 4 3 10 22 14 5 23 -19 10 -22 -11 -24 -10 -15 13 3 9 13 13
25 10 12 -3 19 0 19 8 0 11 2 11 9 0 6 -9 6 -22 0 -33z m-159 13 c0 -4 14 -5
32 -3 20 3 35 0 42 -10 6 -8 21 -18 34 -22 12 -4 20 -11 17 -16 -3 -5 -1 -11
4 -14 5 -3 7 -15 4 -25 -7 -29 -86 -26 -99 3 -5 12 -16 21 -24 21 -16 0 -60
37 -60 52 0 16 22 32 36 26 8 -3 14 -8 14 -12z m190 -86 c0 -9 -9 -15 -25 -15
-14 0 -25 5 -25 11 0 6 7 9 15 6 8 -4 17 -2 20 3 9 14 15 12 15 -5z m-185 -65
c3 -5 2 -10 -4 -10 -5 0 -13 5 -16 10 -3 6 -2 10 4 10 5 0 13 -4 16 -10z m137
-44 c14 -1 24 -4 21 -8 -8 -13 -47 -8 -68 9 l-20 16 20 -8 c11 -5 32 -9 47 -9z
m-116 -107 c3 -6 1 -16 -5 -22 -9 -9 -11 -8 -6 5 4 11 0 18 -12 21 -15 4 -16
5 -1 6 9 0 20 -4 24 -10z m282 -14 c1 -1 -11 -2 -27 -3 -22 0 -28 3 -24 14 4
11 10 11 26 2 12 -6 23 -12 25 -13z m-223 5 c-3 -5 -13 -10 -21 -10 -8 0 -12
-4 -9 -10 3 -5 1 -10 -4 -10 -14 0 -14 13 1 28 14 14 42 16 33 2z m-115 -50
c0 -5 -5 -10 -11 -10 -5 0 -7 5 -4 10 3 6 8 10 11 10 2 0 4 -4 4 -10z"/>
<path d="M1714 5791 c4 -6 2 -11 -4 -11 -13 0 -9 -32 5 -42 18 -14 26 -8 20
12 -5 14 -2 20 10 20 9 0 13 -4 10 -10 -3 -5 -1 -10 4 -10 6 0 11 4 11 8 0 5
23 8 50 8 31 0 56 5 65 15 13 13 8 15 -50 17 -47 2 -65 -1 -65 -10 0 -8 -3 -9
-8 -3 -10 14 -56 20 -48 6z"/>
<path d="M4646 5786 c3 -8 12 -12 20 -9 21 8 17 23 -6 23 -13 0 -18 -5 -14
-14z"/>
<path d="M9460 5792 c0 -5 7 -9 15 -9 8 0 15 4 15 9 0 4 -7 8 -15 8 -8 0 -15
-4 -15 -8z"/>
<path d="M10393 5783 c-6 -16 24 -53 40 -50 6 1 11 -19 12 -46 1 -27 6 -52 11
-55 22 -15 25 -45 5 -63 -10 -10 -21 -15 -24 -13 -3 3 -10 -4 -17 -15 -10 -20
-7 -26 14 -22 5 1 4 -5 -4 -13 -15 -19 -24 -18 130 -18 169 1 160 0 154 16 -3
8 -12 12 -20 9 -8 -3 -14 -1 -14 5 0 16 28 22 56 12 17 -7 24 -15 20 -25 -5
-14 9 -20 41 -16 6 1 35 -8 65 -19 63 -24 68 -24 68 -5 0 8 -6 15 -14 15 -14
0 -52 44 -50 60 1 6 2 16 3 24 0 8 10 18 21 21 11 3 20 13 20 21 0 8 7 14 15
14 8 0 15 -9 15 -20 0 -11 -7 -20 -15 -20 -8 0 -15 -4 -15 -10 0 -5 4 -10 10
-10 5 0 15 -18 21 -40 13 -42 18 -47 36 -29 8 8 14 5 23 -11 10 -20 10 -21 -8
-16 -12 4 -28 -1 -43 -14 -23 -20 -23 -21 -2 -15 12 3 24 1 28 -5 10 -16 25
-12 26 8 0 16 11 -4 37 -68 l10 -25 10 27 c6 14 16 29 22 33 28 17 140 -4 140
-26 0 -15 -26 -39 -34 -32 -3 4 -15 -3 -26 -15 -16 -17 -32 -22 -74 -22 l-53
0 3 -71 c1 -39 5 -73 8 -76 3 -3 1 -14 -5 -24 -7 -13 -6 -19 1 -19 6 0 8 -4 5
-10 -4 -6 1 -7 12 -4 17 5 17 5 1 -8 -9 -8 -18 -25 -20 -38 -2 -20 2 -25 20
-26 12 -1 26 -2 31 -3 5 0 11 -15 13 -31 4 -27 2 -30 -16 -24 -12 3 -25 10
-30 15 -6 5 -12 9 -15 9 -6 0 -5 -107 2 -217 2 -34 -1 -50 -8 -45 -6 3 -6 0 1
-9 7 -9 9 -35 5 -72 -6 -48 -4 -60 11 -74 12 -11 15 -20 8 -28 -5 -6 -7 -15
-4 -18 3 -3 2 -12 -2 -19 -5 -7 -10 -20 -12 -28 -3 -12 -6 -327 -3 -382 1 -10
13 -19 31 -23 17 -4 30 -10 30 -15 0 -4 15 -13 33 -20 17 -7 42 -17 54 -22 12
-6 29 -8 37 -5 12 5 16 0 16 -22 0 -23 -4 -28 -27 -30 -16 -1 -37 -2 -48 -3
-47 -4 -77 2 -73 14 3 7 0 18 -6 25 -6 7 -17 19 -24 28 -14 17 -32 20 -32 6 0
-5 7 -17 16 -25 8 -9 11 -16 5 -16 -6 0 -11 -20 -11 -45 0 -42 2 -45 19 -35
21 11 54 3 46 -10 -3 -4 2 -10 10 -14 8 -3 15 -13 15 -21 0 -12 6 -15 20 -10
11 4 20 2 20 -4 0 -6 -5 -11 -12 -11 -6 0 -8 -3 -4 -7 4 -5 13 -8 19 -8 7 0
13 -10 15 -22 2 -13 6 -23 10 -23 4 0 20 -11 36 -25 16 -14 33 -25 38 -25 4 0
8 -4 8 -9 0 -4 -12 -6 -26 -3 -18 3 -29 -1 -40 -16 -10 -15 -22 -20 -46 -17
-27 4 -76 41 -71 55 4 14 -34 50 -47 45 -23 -8 -18 -115 6 -133 18 -13 18 -13
-1 -10 -11 2 -20 -1 -21 -7 -5 -38 -18 -76 -30 -86 -8 -6 -14 -16 -14 -22 0
-24 -93 -80 -160 -96 -30 -8 -58 -19 -62 -25 -5 -8 -8 -7 -8 2 0 6 -7 12 -15
12 -13 0 -14 -4 -5 -20 6 -11 18 -20 27 -20 13 0 14 -3 5 -12 -9 -9 -15 -8
-24 4 -7 9 -22 18 -33 20 -11 2 -19 10 -17 16 1 9 -43 12 -173 12 -133 0 -175
-3 -175 -12 0 -10 -2 -10 -8 0 -8 11 -114 14 -444 11 -10 0 -18 -4 -18 -9 0
-4 -7 -10 -14 -13 -10 -4 -13 -1 -10 8 5 12 -26 15 -183 17 -103 2 -256 1
-340 -2 -126 -4 -151 -7 -144 -19 5 -8 14 -10 22 -6 8 4 1 -5 -16 -21 -16 -16
-33 -28 -37 -26 -5 1 -8 -2 -8 -6 0 -12 -85 -53 -115 -57 -16 -1 -25 3 -25 11
0 8 -5 14 -11 14 -5 0 -7 5 -4 10 3 6 -1 13 -9 16 -25 10 6 59 46 71 25 9 -22
11 -205 12 -130 1 -236 -2 -236 -6 4 -23 -3 -35 -15 -30 -8 3 -20 -1 -27 -9
-10 -12 -9 -16 9 -21 23 -6 31 -43 10 -43 -6 0 -8 -3 -5 -6 4 -4 13 -1 22 6
13 11 14 10 9 -4 -7 -18 -39 -22 -50 -5 -3 6 -15 9 -25 6 -34 -9 -68 50 -40
67 5 3 7 15 4 26 -5 19 -14 20 -124 20 -68 0 -120 -4 -124 -10 -3 -5 -1 -10 5
-10 6 0 10 -10 9 -22 -4 -25 7 -48 22 -48 5 0 9 8 9 19 0 14 6 17 24 14 18 -4
23 -10 21 -24 -4 -21 10 -26 18 -6 8 20 57 -45 53 -72 -3 -29 -31 -51 -56 -44
-23 6 -27 -12 -5 -21 8 -3 14 -11 13 -18 -2 -8 6 -12 18 -11 15 2 21 -3 20
-14 -1 -13 14 -15 109 -15 l110 1 -3 26 c-3 18 0 25 7 21 6 -4 11 0 11 8 0 23
37 20 52 -4 7 -11 21 -20 30 -20 9 0 21 -8 27 -17 12 -23 121 -26 121 -4 0 21
72 82 92 77 9 -2 19 1 21 8 7 21 57 -17 75 -57 l17 -40 170 1 c94 1 175 2 182
2 6 0 19 15 28 32 15 31 15 34 -2 46 -17 12 -16 13 5 19 13 3 21 11 18 18 -6
15 15 25 51 25 14 0 34 10 44 21 l19 22 9 -24 c5 -15 5 -29 -1 -36 -8 -9 -4
-15 13 -22 21 -8 22 -10 7 -16 -9 -4 -23 -3 -30 1 -9 5 -8 2 2 -10 12 -16 12
-19 -4 -28 -16 -9 -13 -13 25 -33 29 -14 46 -18 51 -11 4 5 4 14 1 19 -3 5 -9
3 -14 -4 -6 -9 -9 -10 -9 -2 0 12 60 53 77 53 6 0 9 -11 8 -24 -5 -40 9 -48
74 -49 33 0 63 2 66 5 3 3 24 2 47 -2 35 -7 41 -5 45 11 7 27 38 33 69 12 27
-17 27 -17 15 5 -12 23 -9 26 22 22 10 -1 25 4 33 10 9 9 14 9 14 2 0 -6 7 -9
15 -6 8 4 15 2 15 -4 0 -5 11 -7 25 -4 38 7 75 -6 84 -31 7 -18 16 -22 43 -22
18 1 40 5 47 10 10 5 12 4 7 -3 -4 -7 -2 -12 3 -12 10 0 12 7 10 26 -1 12 46
44 58 40 7 -3 13 2 14 12 0 9 5 2 10 -16 8 -27 14 -32 27 -26 9 4 30 7 45 7
19 0 24 3 15 8 -9 6 -6 8 8 7 15 -2 20 -7 16 -20 -2 -10 -8 -15 -13 -12 -5 3
-9 0 -9 -5 0 -9 44 -16 72 -12 13 1 65 2 283 1 222 0 287 4 293 21 2 5 8 7 13
3 22 -13 108 76 113 118 1 3 4 10 9 14 4 4 6 41 6 83 -1 42 -4 66 -6 53 -2
-12 -9 -20 -14 -16 -6 4 -4 15 5 29 13 19 15 88 15 459 0 240 -2 436 -5 436
-3 0 -12 -6 -19 -14 -10 -9 -11 -16 -3 -24 14 -14 2 -46 -14 -36 -8 5 -9 2 -5
-9 3 -9 2 -19 -3 -22 -6 -4 -15 6 -20 21 -8 19 -8 29 0 34 14 8 22 50 9 50 -5
0 -9 6 -9 14 0 21 -21 31 -31 15 -5 -8 -9 -9 -9 -4 0 6 9 18 20 28 11 9 20 24
20 34 0 13 3 14 12 5 7 -7 20 -12 29 -12 10 0 20 -6 22 -12 3 -7 6 40 6 104 1
106 -1 118 -19 131 -13 9 -18 20 -14 31 6 15 2 17 -28 11 -30 -6 -37 -3 -52
20 -14 21 -20 24 -32 14 -12 -9 -14 -6 -14 22 0 39 23 58 78 65 l36 5 -22 -19
c-23 -20 -29 -56 -12 -67 6 -4 20 5 31 19 24 30 36 33 42 9 3 -12 5 -8 6 9 1
19 -5 29 -20 33 -15 5 -19 13 -16 27 4 13 -1 22 -16 27 l-22 8 21 7 c12 3 28
4 35 1 11 -4 15 3 17 25 1 16 -2 30 -8 30 -5 0 -6 8 -3 18 6 15 5 15 -11 3 -9
-8 -16 -10 -14 -5 4 12 -47 74 -60 74 -6 0 -12 7 -16 15 -4 12 -2 13 13 6 14
-8 21 -5 31 14 7 14 17 25 22 25 4 0 8 8 9 18 0 14 2 14 7 2 13 -27 32 -22 32
9 0 16 -6 32 -12 34 -10 4 -10 6 -1 6 15 1 18 429 3 496 -18 80 -109 143 -220
151 -75 6 -107 -6 -76 -29 19 -14 19 -15 -2 -21 -12 -4 -22 -11 -22 -16 0 -4
-9 -10 -19 -13 -20 -5 -36 17 -25 34 3 5 7 18 9 29 4 19 -2 20 -124 18 -111
-2 -128 -4 -124 -17 3 -9 19 -25 36 -36 28 -18 38 -39 20 -41 -28 -3 -75 -22
-117 -46 l-49 -29 6 35 c3 21 0 41 -7 52 -7 10 -11 26 -8 36 9 36 -15 48 -95
46 -53 -1 -77 -6 -80 -15z m892 -243 c-3 -5 -10 -10 -16 -10 -5 0 -9 5 -9 10
0 6 7 10 16 10 8 0 12 -4 9 -10z m-24 -257 c37 -22 37 -30 -1 -38 -38 -8 -43
-17 -30 -52 9 -25 8 -26 -4 -10 -16 21 -30 22 -22 2 5 -15 -8 -20 -49 -15 -30
3 -35 20 -15 43 10 10 16 26 13 35 -4 8 -2 13 3 10 5 -4 18 0 29 8 10 8 15 14
9 15 -7 0 21 16 34 18 2 1 17 -7 33 -16z m-141 -159 c0 -7 -45 -4 -59 5 -27
17 -2 30 29 14 17 -8 30 -16 30 -19z m45 -54 c3 -6 -1 -7 -9 -4 -18 7 -21 14
-7 14 6 0 13 -4 16 -10z m-5 -110 c0 -5 -7 -10 -16 -10 -8 0 -12 5 -9 10 3 6
10 10 16 10 5 0 9 -4 9 -10z m-80 -114 c0 -3 -4 -8 -10 -11 -5 -3 -10 -1 -10
4 0 6 5 11 10 11 6 0 10 -2 10 -4z m67 -28 c-3 -8 -6 -5 -6 6 -1 11 2 17 5 13
3 -3 4 -12 1 -19z m-63 -172 c-4 -10 8 -15 43 -20 59 -9 113 -27 113 -39 0 -4
4 -6 9 -3 12 8 8 -25 -7 -51 -7 -13 -8 -24 -2 -28 5 -3 7 -12 3 -21 -5 -15
-18 -10 -18 7 0 5 -3 9 -7 9 -5 0 -12 0 -18 0 -5 0 -9 -3 -7 -7 5 -16 -9 -16
-43 -3 -19 7 -38 12 -41 12 -10 -2 -5 32 5 39 11 8 -2 31 -14 24 -4 -3 -10 2
-14 10 -3 10 1 15 12 16 10 0 12 3 4 6 -6 2 -10 8 -7 13 3 4 -7 11 -23 15 -26
6 -26 7 -8 21 25 17 27 17 20 0z m-2 -154 c-20 -6 36 -44 69 -47 38 -3 49 -14
26 -26 -13 -8 -15 -14 -7 -28 5 -10 6 -21 3 -25 -3 -3 2 -6 11 -6 28 0 12 -24
-17 -27 -18 -1 -27 3 -27 13 0 8 -4 14 -9 14 -9 0 -46 68 -46 85 0 6 -5 16
-12 23 -14 15 -6 45 10 35 8 -5 7 -8 -1 -11z m125 -244 c-1 -17 3 -23 16 -22
21 2 23 -12 3 -19 -8 -3 -20 1 -27 9 -7 8 -18 13 -25 10 -6 -2 -15 -2 -18 1
-9 9 18 31 51 42 2 1 2 -9 0 -21z m66 -104 c1 -5 -8 -10 -21 -12 -12 -2 -20
-7 -17 -12 8 -13 -34 -48 -53 -46 -20 3 -29 51 -13 70 12 15 100 14 104 0z
m-74 -523 c17 -11 10 -33 -11 -37 -10 -1 -18 7 -21 22 -4 25 7 30 32 15z
m-169 -195 c0 -2 -7 -7 -16 -10 -8 -3 -12 -2 -9 4 6 10 25 14 25 6z m-1634
-43 c11 -52 12 -83 3 -88 -4 -3 -10 4 -14 15 -3 11 -12 20 -19 20 -8 0 -12 10
-11 25 2 14 -1 27 -6 31 -20 12 -8 26 32 33 4 0 10 -16 15 -36z m1174 33 c0
-2 -8 -10 -17 -17 -16 -13 -17 -12 -4 4 13 16 21 21 21 13z m690 -10 c0 -2 -7
-7 -16 -10 -8 -3 -12 -2 -9 4 6 10 25 14 25 6z m-2610 -25 c0 -11 6 -22 13
-24 7 -4 6 -6 -5 -6 -34 -2 -48 10 -37 30 13 25 29 24 29 0z m1270 -4 c22 6
53 -14 44 -28 -3 -5 -13 -9 -24 -9 -10 0 -20 -6 -23 -14 -3 -7 -14 -16 -25
-18 -20 -5 -20 1 -12 87 0 6 5 3 10 -7 6 -10 18 -14 30 -11z m350 8 c0 -2 -6
-5 -13 -8 -8 -3 -14 1 -14 8 0 7 6 11 14 8 7 -3 13 -6 13 -8z m354 -1 c3 -8 2
-12 -4 -9 -6 3 -10 10 -10 16 0 14 7 11 14 -7z m31 -2 c-3 -3 -11 0 -18 7 -9
10 -8 11 6 5 10 -3 15 -9 12 -12z m155 -2 c0 -5 -4 -10 -10 -10 -5 0 -10 5
-10 10 0 6 5 10 10 10 6 0 10 -4 10 -10z m-1220 -10 c0 -5 -2 -10 -4 -10 -3 0
-8 5 -11 10 -3 6 -1 10 4 10 6 0 11 -4 11 -10z m790 -10 c0 -5 -4 -10 -10 -10
-5 0 -10 5 -10 10 0 6 5 10 10 10 6 0 10 -4 10 -10z m755 0 c3 -5 2 -10 -4
-10 -5 0 -13 5 -16 10 -3 6 -2 10 4 10 5 0 13 -4 16 -10z m-1845 -20 c0 -5 -4
-10 -10 -10 -5 0 -10 5 -10 10 0 6 5 10 10 10 6 0 10 -4 10 -10z m400 -5 c11
-13 10 -14 -4 -9 -9 3 -16 10 -16 15 0 13 6 11 20 -6z m795 5 c-3 -5 -12 -10
-18 -10 -7 0 -6 4 3 10 19 12 23 12 15 0z m-1610 -10 c-3 -5 -12 -10 -18 -10
-7 0 -6 4 3 10 19 12 23 12 15 0z m1365 0 c0 -5 -2 -10 -4 -10 -3 0 -8 5 -11
10 -3 6 -1 10 4 10 6 0 11 -4 11 -10z m-890 -44 c0 -11 -19 -15 -25 -6 -3 5 1
10 9 10 9 0 16 -2 16 -4z m1187 -2 c-3 -3 -12 -4 -19 -1 -8 3 -5 6 6 6 11 1
17 -2 13 -5z m-1524 -24 c4 -17 2 -18 -15 -9 -17 9 -18 13 -7 20 8 5 15 9 15
9 1 0 4 -9 7 -20z m1167 10 c0 -5 -2 -10 -4 -10 -3 0 -8 5 -11 10 -3 6 -1 10
4 10 6 0 11 -4 11 -10z m298 -10 c7 -11 11 -20 9 -20 -2 0 -12 9 -22 20 -10
11 -14 20 -9 20 5 0 15 -9 22 -20z m122 0 c0 -5 -7 -7 -15 -4 -8 4 -12 10 -9
15 6 11 24 2 24 -11z m590 10 c0 -5 -2 -10 -4 -10 -3 0 -8 5 -11 10 -3 6 -1
10 4 10 6 0 11 -4 11 -10z m65 0 c3 -5 1 -10 -4 -10 -6 0 -11 5 -11 10 0 6 2
10 4 10 3 0 8 -4 11 -10z m-116 -3 c-2 -1 -13 -9 -24 -17 -19 -14 -19 -14 -6
3 7 9 18 17 24 17 6 0 8 -1 6 -3z m-279 -22 c0 -8 -4 -15 -8 -15 -5 0 -9 7 -9
15 0 8 4 15 9 15 4 0 8 -7 8 -15z m-557 -12 c-7 -2 -19 -2 -25 0 -7 3 -2 5 12
5 14 0 19 -2 13 -5z m174 -25 c-3 -8 -6 -5 -6 6 -1 11 2 17 5 13 3 -3 4 -12 1
-19z m362 8 c9 -11 9 -16 -1 -22 -7 -4 -10 -4 -6 1 4 4 3 14 -3 22 -6 7 -9 13
-6 13 2 0 10 -6 16 -14z m-1739 -6 c0 -5 -4 -10 -10 -10 -5 0 -10 5 -10 10 0
6 5 10 10 10 6 0 10 -4 10 -10z m1417 4 c-3 -3 -12 -4 -19 -1 -8 3 -5 6 6 6
11 1 17 -2 13 -5z m178 -14 c3 -6 -1 -7 -9 -4 -18 7 -21 14 -7 14 6 0 13 -4
16 -10z m121 -17 c-10 -10 -19 5 -10 18 6 11 8 11 12 0 2 -7 1 -15 -2 -18z
m168 12 c3 -8 1 -15 -3 -15 -5 0 -11 7 -15 15 -3 8 -1 15 3 15 5 0 11 -7 15
-15z m-247 -11 c-3 -3 -12 -4 -19 -1 -8 3 -5 6 6 6 11 1 17 -2 13 -5z"/>
<path d="M10345 5770 c-9 -14 4 -32 17 -24 7 5 9 0 6 -14 -5 -17 -2 -22 12
-22 14 0 17 5 12 23 -5 21 -25 47 -36 47 -3 0 -8 -4 -11 -10z"/>
<path d="M1760 5720 c0 -5 9 -10 19 -10 11 0 26 -3 35 -6 11 -4 16 -1 16 10 0
12 -10 16 -35 16 -19 0 -35 -4 -35 -10z"/>
<path d="M1740 5680 c-19 -12 -11 -18 32 -25 38 -6 52 2 39 24 -6 9 -11 10
-15 2 -5 -7 -13 -8 -25 -2 -10 6 -23 6 -31 1z"/>
<path d="M1680 5665 c0 -8 2 -15 4 -15 2 0 6 7 10 15 3 8 1 15 -4 15 -6 0 -10
-7 -10 -15z"/>
<path d="M4212 5667 c-22 -7 -32 -16 -30 -26 6 -32 63 -16 65 18 1 12 1 21 0
20 -1 -1 -17 -6 -35 -12z m8 -21 c0 -2 -7 -7 -16 -10 -8 -3 -12 -2 -9 4 6 10
25 14 25 6z"/>
<path d="M1570 5635 c-10 -12 -9 -16 5 -21 23 -9 40 10 22 25 -11 9 -17 8 -27
-4z"/>
<path d="M1614 5618 c-4 -6 -2 -14 4 -16 7 -2 12 -10 12 -17 0 -19 30 -27 36
-11 13 34 -34 74 -52 44z"/>
<path d="M8818 5553 c7 -3 16 -2 19 1 4 3 -2 6 -13 5 -11 0 -14 -3 -6 -6z"/>
<path d="M1490 5541 c0 -6 4 -13 10 -16 6 -3 7 1 4 9 -7 18 -14 21 -14 7z"/>
<path d="M2002 5491 c-9 -5 -4 -8 16 -7 17 1 28 4 25 9 -6 9 -25 9 -41 -2z"/>
<path d="M2270 5179 c0 -8 -14 -9 -44 -5 -84 13 -206 -58 -253 -147 -29 -56
-17 -181 23 -224 13 -14 10 -86 -4 -91 -13 -4 -42 37 -41 58 0 10 3 9 9 -5 7
-18 8 -19 15 -2 7 17 -9 47 -26 47 -5 0 -9 -18 -9 -40 0 -22 5 -40 10 -40 6 0
8 -11 4 -25 -4 -16 -2 -25 6 -25 7 0 10 7 5 18 -5 13 -3 14 6 5 6 -6 18 -9 27
-5 12 4 14 1 9 -12 -4 -10 -7 -19 -7 -22 0 -2 -7 -1 -15 2 -44 17 -13 -89 44
-151 43 -47 110 -97 121 -90 6 3 10 0 11 -7 0 -7 46 -47 102 -88 87 -65 102
-80 112 -115 8 -30 16 -40 30 -38 21 2 35 -13 35 -35 0 -8 -9 -12 -22 -10 -23
3 -22 4 -31 -87 -4 -35 -10 -51 -24 -57 -14 -6 -11 -7 12 -6 35 1 65 -10 65
-24 0 -6 -11 -8 -25 -6 -25 5 -34 -5 -15 -17 16 -10 12 -19 -13 -30 -25 -12
-57 -8 -57 6 0 5 11 15 25 21 32 15 32 28 -1 28 -14 0 -23 4 -20 9 3 5 -7 14
-23 21 -35 14 -41 32 -41 137 0 45 -5 85 -10 88 -6 4 -8 11 -5 16 4 5 -2 9
-11 9 -16 0 -16 -2 1 -20 22 -25 16 -33 -19 -24 -26 6 -26 7 -9 35 9 15 20 26
25 23 4 -3 8 0 8 6 0 6 5 8 10 5 6 -3 10 -1 10 4 0 14 -102 11 -113 -3 -6 -8
-10 -7 -14 2 -7 19 -36 15 -29 -4 4 -9 1 -23 -5 -30 -13 -16 -49 -19 -49 -3 0
5 4 8 9 5 5 -4 17 -3 26 0 15 6 14 8 -1 25 -21 23 -60 25 -72 4 -7 -13 -14
-14 -36 -5 -15 5 -29 10 -32 10 -2 0 -4 -46 -4 -102 0 -138 36 -286 66 -274 7
3 10 -2 7 -14 -4 -14 7 -26 39 -47 62 -40 110 -62 135 -63 12 0 25 -4 28 -10
9 -15 193 -12 246 4 124 38 204 105 227 190 19 74 16 308 -6 388 -26 92 -53
125 -212 251 -8 7 -37 27 -64 45 -52 34 -82 41 -73 18 7 -17 -11 -36 -34 -36
-23 0 -30 23 -23 69 4 23 1 48 -6 61 -16 31 -21 136 -8 166 14 31 54 42 75 22
8 -9 17 -42 20 -77 5 -54 8 -61 24 -56 13 4 19 1 19 -9 0 -9 6 -13 14 -10 8 3
17 1 20 -4 7 -11 -21 -25 -34 -17 -4 3 -10 -2 -14 -10 -5 -13 15 -15 140 -15
l145 0 -6 23 c-4 12 -14 28 -23 35 -9 7 -11 12 -4 12 20 0 14 18 -9 25 -14 5
-26 0 -40 -16 -12 -14 -23 -19 -27 -13 -13 18 -62 45 -72 39 -5 -3 -6 -13 -3
-21 4 -12 1 -15 -13 -12 -27 5 -31 38 -5 38 22 0 23 5 24 81 0 30 4 35 19 31
10 -2 18 1 18 8 0 6 8 9 18 6 11 -4 30 7 55 33 l38 39 -30 34 c-39 45 -125 86
-203 97 -35 5 -64 8 -66 6 -2 -1 -4 -27 -5 -56 -2 -42 -6 -54 -19 -57 -22 -4
-23 11 -3 31 12 12 12 16 1 20 -7 3 -16 19 -19 36 -6 29 -37 46 -37 20z m-150
-51 c0 -16 -31 -48 -47 -48 -16 0 -16 10 0 31 7 9 18 14 26 11 8 -3 11 0 7 7
-4 6 -2 11 3 11 6 0 11 -5 11 -12z m-80 -58 c0 -5 -4 -10 -10 -10 -5 0 -10 5
-10 10 0 6 5 10 10 10 6 0 10 -4 10 -10z m229 -19 c16 -14 4 -46 -17 -46 -6 0
-14 -4 -19 -8 -4 -5 -2 -7 6 -5 21 5 24 -18 5 -36 -21 -21 -30 -12 -40 38 -5
28 -4 37 5 32 14 -9 14 0 0 25 -10 19 -8 20 18 17 15 -2 34 -9 42 -17z m259
-50 c3 -8 -1 -12 -9 -9 -7 2 -15 10 -17 17 -3 8 1 12 9 9 7 -2 15 -10 17 -17z
m-238 -31 c0 -5 -4 -10 -10 -10 -5 0 -10 5 -10 10 0 6 5 10 10 10 6 0 10 -4
10 -10z m137 -56 c-14 -16 -24 -21 -31 -14 -13 13 21 51 39 44 10 -4 8 -11 -8
-30z m-440 -46 c-3 -7 -5 -2 -5 12 0 14 2 19 5 13 2 -7 2 -19 0 -25z m503 12
c0 -5 -5 -10 -11 -10 -5 0 -7 5 -4 10 3 6 8 10 11 10 2 0 4 -4 4 -10z m-396
-116 c9 -24 2 -26 -12 -4 -7 11 -8 20 -3 20 5 0 12 -7 15 -16z m-34 -19 c-7
-8 -17 -15 -22 -15 -6 0 -5 7 2 15 7 8 17 15 22 15 6 0 5 -7 -2 -15z m120 -15
c0 -5 -9 -8 -20 -7 -20 1 -25 8 -14 20 8 7 34 -3 34 -13z m-100 -92 c0 -4 -4
-8 -9 -8 -6 0 -12 4 -15 8 -3 5 1 9 9 9 8 0 15 -4 15 -9z m83 -10 c-2 -5 2 -8
10 -8 19 0 28 -23 17 -41 -6 -8 -4 -16 3 -21 9 -5 6 -13 -9 -28 l-21 -21 -13
30 c-7 17 -10 42 -8 56 4 19 0 26 -21 34 -24 9 -24 9 11 8 20 -1 34 -5 31 -9z
m67 -62 c0 -3 -4 -8 -10 -11 -5 -3 -10 -1 -10 4 0 6 5 11 10 11 6 0 10 -2 10
-4z m-27 -61 c-3 -9 -8 -14 -10 -11 -3 3 -2 9 2 15 9 16 15 13 8 -4z m24 -7
c-3 -8 -6 -5 -6 6 -1 11 2 17 5 13 3 -3 4 -12 1 -19z m62 -24 c-8 -10 -15 -12
-23 -4 -7 7 -4 14 10 24 22 17 32 3 13 -20z m-82 -16 c-1 -10 -7 -18 -14 -18
-7 0 -13 8 -13 18 0 10 6 19 14 19 8 0 14 -9 13 -19z m313 -47 c24 -46 3 -56
-23 -11 -16 26 -16 30 -3 30 8 0 20 -9 26 -19z m-214 -36 c-8 -30 -36 -34 -36
-5 0 11 7 20 15 20 8 0 15 5 15 12 0 6 3 9 6 5 4 -3 4 -18 0 -32z m61 -10 c0
-8 -4 -15 -9 -15 -4 0 -8 7 -8 15 0 8 4 15 8 15 5 0 9 -7 9 -15z m121 -27 c7
-10 19 -15 25 -12 8 5 8 2 -1 -7 -10 -11 -15 -10 -27 8 -9 13 -22 20 -30 17
-8 -4 -15 -2 -15 3 0 17 35 10 48 -9z m-294 -116 c2 -4 1 -14 -3 -21 -6 -9
-10 -7 -14 8 -5 20 7 29 17 13z m285 -182 c7 -17 10 -38 6 -48 -6 -14 -11 -9
-25 23 -17 37 -18 55 -2 55 4 0 13 -14 21 -30z m-374 -160 c-3 -5 -10 -10 -16
-10 -5 0 -9 5 -9 10 0 6 7 10 16 10 8 0 12 -4 9 -10z m47 -47 c17 -15 18 -15
18 0 0 18 9 21 34 11 22 -8 20 -31 -3 -44 -21 -11 -51 -4 -51 12 0 5 -4 7 -9
3 -5 -3 -12 -1 -16 5 -3 5 -15 10 -26 10 -11 0 -17 5 -14 10 10 15 46 12 67
-7z"/>
<path d="M2161 4544 c0 -11 3 -14 6 -6 3 7 2 16 -1 19 -3 4 -6 -2 -5 -13z"/>
<path d="M4528 5183 c-26 -4 -27 -6 -13 -26 18 -28 5 -50 -26 -45 -19 2 -24 9
-24 31 1 29 -6 33 -34 17 -22 -11 -19 -75 5 -101 8 -8 11 -19 7 -22 -3 -4 6
-7 21 -7 15 0 29 -7 33 -15 8 -23 -5 -31 -27 -18 -14 10 -21 9 -30 -2 -7 -8
-19 -15 -26 -15 -18 0 -18 -2 7 -50 12 -22 19 -47 16 -54 -7 -17 -47 -10 -47
8 0 17 -45 58 -53 49 -4 -3 -7 -1 -7 6 0 8 -7 10 -20 6 -11 -3 -30 1 -44 11
-25 16 -26 15 -37 -12 -8 -19 -13 -148 -17 -376 l-5 -348 24 0 23 0 -21 -15
c-16 -11 -21 -23 -18 -43 2 -15 7 -54 10 -87 9 -111 31 -168 80 -218 15 -15
36 -27 46 -27 10 0 23 -9 29 -20 16 -31 131 -60 236 -60 136 0 231 37 305 117
54 58 69 94 79 191 6 48 12 101 14 118 3 24 0 34 -16 41 -19 8 -19 9 1 35 12
14 21 38 21 52 l0 26 -175 0 -175 0 0 -148 c0 -117 -3 -152 -16 -170 -19 -27
-55 -28 -78 -3 -16 18 -18 45 -18 263 0 151 -4 248 -10 256 -7 8 -7 16 0 25 6
7 11 80 12 175 l1 163 -21 -21 c-22 -22 -42 -25 -71 -10 -25 14 -25 30 0 30
11 0 26 8 33 18 7 10 21 21 31 25 23 9 22 28 -3 34 -26 7 -26 23 1 23 12 0 23
-8 26 -20 6 -21 11 -23 54 -20 54 3 59 -14 59 -216 l0 -184 175 0 175 0 0 93
c0 50 -7 145 -15 210 -18 152 -44 203 -134 264 -34 23 -78 47 -99 53 -40 12
-201 21 -244 13z m75 -78 c-1 -15 3 -37 9 -49 11 -20 10 -21 -9 -3 -13 11 -19
26 -16 37 3 13 -1 22 -12 26 -13 5 -14 9 -3 15 21 14 33 4 31 -26z m216 -37
c12 -31 -12 -58 -42 -49 -64 18 -72 57 -14 64 18 2 36 5 40 5 4 1 12 -8 16
-20z m-47 -105 c19 -21 31 -93 16 -90 -6 1 -13 -4 -15 -10 -3 -7 0 -13 7 -13
8 0 8 -6 0 -21 -13 -24 4 -53 27 -45 7 3 23 2 36 -3 27 -10 47 -4 47 14 0 7 7
18 15 25 8 7 15 21 15 32 0 20 22 48 38 48 22 0 19 -52 -5 -81 -13 -16 -22
-33 -18 -39 4 -6 -5 -10 -20 -10 -23 0 -24 -2 -15 -20 8 -15 8 -20 -1 -20 -6
0 -13 9 -16 20 -4 16 -9 18 -19 9 -7 -6 -17 -8 -22 -5 -6 3 -15 -1 -22 -9 -7
-8 -17 -15 -22 -15 -7 0 -6 5 1 13 14 18 4 27 -28 26 -14 0 -20 -3 -13 -6 6
-2 12 -9 12 -15 0 -6 -6 -6 -15 2 -8 7 -12 17 -9 22 3 5 -4 12 -15 15 -17 4
-20 10 -15 27 3 11 13 28 20 37 17 19 18 39 3 39 -6 0 -9 16 -8 38 4 58 14 66
41 35z m-432 -58 c16 10 12 -11 -5 -25 -13 -11 -18 -10 -29 6 -17 23 -10 40 9
24 8 -7 19 -9 25 -5z m-50 -65 c0 -5 -2 -10 -4 -10 -3 0 -8 5 -11 10 -3 6 -1
10 4 10 6 0 11 -4 11 -10z m30 -95 c0 -18 -5 -25 -20 -25 -11 0 -20 2 -20 4 0
2 -3 11 -6 19 -5 14 6 21 39 26 4 0 7 -10 7 -24z m-45 -225 c3 -6 -1 -7 -9 -4
-18 7 -21 14 -7 14 6 0 13 -4 16 -10z m503 -266 c-14 -32 -35 -37 -59 -14 -19
18 -15 32 6 23 8 -3 15 -1 15 5 0 6 9 8 20 5 12 -3 20 0 20 8 0 7 2 10 5 7 3
-3 0 -18 -7 -34z m-448 -12 c0 -5 -9 -19 -20 -32 -17 -19 -23 -21 -33 -10 -10
10 -9 11 2 5 11 -6 13 -4 8 9 -6 14 -3 17 8 12 9 -3 18 1 21 9 7 16 14 20 14
7z m426 -100 c-4 -3 -15 4 -25 15 -15 15 -17 23 -8 32 8 8 15 5 25 -15 7 -14
11 -28 8 -32z m34 32 c0 -8 -4 -12 -10 -9 -5 3 -10 10 -10 16 0 5 5 9 10 9 6
0 10 -7 10 -16z m-410 -214 c0 -5 -4 -10 -9 -10 -6 0 -13 5 -16 10 -3 6 1 10
9 10 9 0 16 -4 16 -10z m401 -42 c10 -15 2 -28 -17 -28 -8 0 -14 -5 -14 -11 0
-8 -13 -10 -37 -6 -43 7 -64 24 -45 36 8 5 13 12 12 17 -5 26 85 19 101 -8z
m-221 13 c0 -5 -7 -14 -15 -21 -12 -10 -15 -10 -15 2 0 8 3 18 7 21 9 10 23 9
23 -2z m60 -41 c0 -10 -7 -23 -15 -30 -12 -10 -15 -7 -21 14 -3 14 -10 23 -15
20 -5 -3 -9 0 -9 5 0 6 5 11 10 11 6 0 10 7 10 17 0 14 2 14 20 -2 11 -10 20
-26 20 -35z m160 -81 c0 -5 -17 -9 -37 -9 -38 0 -36 14 2 22 23 5 35 1 35 -13z"/>
<path d="M4760 4890 c0 -5 5 -10 10 -10 6 0 10 5 10 10 0 6 -4 10 -10 10 -5 0
-10 -4 -10 -10z"/>
<path d="M7489 5179 c-8 -5 -29 -9 -47 -9 -40 0 -103 -31 -120 -60 -7 -11 -24
-25 -37 -30 -47 -18 -102 -135 -91 -193 4 -24 3 -28 -5 -17 -7 11 -8 6 -3 -19
3 -19 12 -40 19 -47 10 -10 12 -46 6 -93 -1 -3 -6 0 -13 7 -7 7 -15 12 -18 12
-9 0 -5 -605 4 -676 9 -64 63 -181 83 -177 6 1 10 -5 9 -15 -1 -13 6 -16 32
-14 19 1 39 -4 48 -13 19 -19 35 -20 28 -1 -4 10 2 12 20 9 29 -6 34 -27 10
-41 -19 -11 -54 -4 -54 10 0 5 -4 6 -10 3 -5 -3 -10 -1 -10 4 0 6 -8 11 -17
11 -33 -1 28 -37 97 -59 114 -36 261 -26 361 24 80 40 147 134 168 235 5 25
10 203 11 395 l1 350 -26 0 c-26 0 -35 -19 -12 -28 6 -3 2 -6 -11 -6 -18 -1
-24 7 -34 44 -14 53 -41 68 -66 37 -16 -20 -16 -20 -54 4 -40 26 -61 25 -51
-2 4 -12 1 -15 -13 -12 -27 5 -31 38 -5 38 22 0 23 5 24 81 0 30 4 35 19 31
10 -2 18 1 18 8 0 6 8 9 18 6 13 -5 33 8 66 41 l49 47 -44 38 c-56 48 -135 78
-215 82 -61 2 -62 2 -66 -26 -3 -15 -1 -31 3 -35 11 -12 -9 -53 -26 -53 -19 0
-19 14 0 30 13 11 13 14 0 27 -9 8 -13 19 -9 24 9 15 -21 38 -37 28z m-5 -129
c12 -12 -4 -45 -22 -45 -6 0 -14 -4 -19 -9 -5 -5 -3 -6 5 -2 21 12 28 -25 7
-40 -11 -8 -22 -11 -26 -7 -11 13 -19 84 -8 78 13 -9 11 19 -3 34 -11 11 -7
13 22 7 19 -3 39 -11 44 -16z m254 -48 c6 -18 -15 -14 -22 4 -4 10 -1 14 6 12
6 -2 14 -10 16 -16z m-233 -32 c3 -5 -1 -10 -9 -10 -9 0 -16 5 -16 10 0 6 4
10 9 10 6 0 13 -4 16 -10z m95 -35 c11 -14 14 -13 25 1 6 10 17 14 23 10 8 -5
6 -14 -8 -28 -25 -27 -30 -141 -6 -132 8 3 17 0 21 -6 4 -7 -1 -14 -13 -17
-20 -5 -21 -12 -24 -372 -3 -393 -3 -394 -53 -403 -21 -5 -26 0 -35 31 -5 20
-10 108 -11 196 0 88 -3 154 -6 148 -8 -21 -33 -15 -33 7 0 11 6 20 14 20 21
0 26 23 26 132 0 82 -3 103 -16 113 -16 11 -16 14 0 45 18 37 21 53 6 30 -8
-11 -10 -8 -7 15 2 17 6 37 10 45 3 8 8 45 10 83 3 37 10 74 17 82 16 19 44
19 60 0z m100 -55 c0 -5 -5 -10 -11 -10 -5 0 -7 5 -4 10 3 6 8 10 11 10 2 0 4
-4 4 -10z m-390 -135 c0 -5 -5 -3 -10 5 -5 8 -10 20 -10 25 0 6 5 3 10 -5 5
-8 10 -19 10 -25z m-95 -64 c-3 -6 -11 -11 -16 -11 -5 0 -4 6 3 14 14 16 24
13 13 -3z m85 -35 c0 -3 -4 -8 -10 -11 -5 -3 -10 -1 -10 4 0 6 5 11 10 11 6 0
10 -2 10 -4z m37 -12 c-3 -3 -12 -4 -19 -1 -8 3 -5 6 6 6 11 1 17 -2 13 -5z
m49 -17 c18 7 29 -24 15 -41 -9 -11 -9 -15 1 -19 9 -3 10 -8 3 -16 -8 -8 -15
-1 -24 24 -7 19 -16 33 -21 30 -5 -3 -8 4 -7 15 1 12 5 16 10 11 5 -5 16 -7
23 -4z m314 -97 c0 -5 -2 -10 -4 -10 -3 0 -8 5 -11 10 -3 6 -1 10 4 10 6 0 11
-4 11 -10z m-287 -15 c-3 -9 -8 -14 -10 -11 -3 3 -2 9 2 15 9 16 15 13 8 -4z
m94 -20 c-4 -8 -14 -15 -23 -15 -16 0 -16 2 2 19 21 21 29 19 21 -4z m-87 -27
c0 -10 -7 -18 -15 -18 -8 0 -15 8 -15 18 0 10 7 19 15 19 8 0 15 -9 15 -19z
m-90 -50 c0 -6 -6 -5 -15 2 -8 7 -15 14 -15 16 0 2 7 1 15 -2 8 -4 15 -11 15
-16z m398 10 c13 -13 16 -48 4 -48 -4 0 -16 14 -25 30 -14 23 -15 30 -5 30 8
0 19 -5 26 -12z m-363 -8 c-3 -5 -11 -10 -16 -10 -6 0 -7 5 -4 10 3 6 11 10
16 10 6 0 7 -4 4 -10z m0 -40 c-3 -5 -12 -7 -20 -3 -21 7 -19 13 6 13 11 0 18
-4 14 -10z m358 -44 c8 5 8 3 0 -6 -11 -12 -15 -11 -28 6 -8 10 -15 23 -15 29
0 5 7 -1 16 -13 8 -12 21 -19 27 -16z m-320 -21 c-3 -8 0 -15 6 -15 6 0 11 -5
11 -11 0 -8 -5 -8 -15 1 -16 13 -21 55 -5 45 5 -3 7 -12 3 -20z m-153 5 c0 -5
-4 -10 -10 -10 -5 0 -10 5 -10 10 0 6 5 10 10 10 6 0 10 -4 10 -10z m-20 -50
c0 -5 -2 -10 -4 -10 -3 0 -8 5 -11 10 -3 6 -1 10 4 10 6 0 11 -4 11 -10z m250
-6 c0 -9 5 -12 13 -8 8 5 7 2 -2 -10 -11 -13 -16 -14 -22 -4 -12 18 -11 38 1
38 6 0 10 -7 10 -16z m-25 -44 c-3 -5 -11 -10 -16 -10 -6 0 -7 5 -4 10 3 6 11
10 16 10 6 0 7 -4 4 -10z m195 -67 c0 -25 -15 -12 -17 14 -1 19 1 22 8 12 5
-8 9 -20 9 -26z m25 -93 c3 -5 2 -10 -4 -10 -5 0 -13 5 -16 10 -3 6 -2 10 4
10 5 0 13 -4 16 -10z m-75 -100 c-6 -10 -9 -24 -8 -31 2 -6 -3 -14 -9 -16 -19
-7 -16 24 4 47 22 25 27 26 13 0z m-290 -70 c0 -5 -5 -10 -11 -10 -5 0 -7 5
-4 10 3 6 8 10 11 10 2 0 4 -4 4 -10z"/>
<path d="M2783 4933 c-2 -238 1 -288 18 -262 6 9 9 -3 9 -38 0 -44 4 -55 26
-72 15 -12 25 -21 23 -22 -34 -6 -59 -6 -55 -1 2 4 0 16 -4 27 -5 13 -10 -10
-14 -65 -7 -96 -5 -250 5 -250 3 0 14 -16 25 -35 10 -19 22 -35 26 -35 5 0 13
-11 19 -24 7 -14 17 -22 25 -19 15 6 19 -24 8 -64 -6 -22 -7 -22 -38 -6 -37
19 -46 31 -38 51 4 12 1 14 -12 9 -10 -4 -20 -7 -22 -7 -2 0 -4 -76 -4 -168
l0 -169 168 1 167 1 3 88 c3 80 -5 106 -23 77 -10 -17 -25 -11 -25 9 0 21 36
35 44 17 2 -6 4 23 4 64 0 41 -2 68 -5 58 -2 -9 -11 -19 -18 -22 -18 -6 -49
48 -42 73 6 23 -39 19 -83 -7 -43 -27 -47 -27 -55 -2 -3 11 -11 20 -17 20 -7
0 -7 4 0 13 7 8 38 12 89 12 43 0 82 4 86 10 4 6 7 -1 6 -15 -2 -43 0 -50 21
-50 19 0 20 7 20 100 l0 100 63 1 c34 1 70 1 79 0 42 -5 140 33 181 69 61 54
68 91 66 339 -2 282 -21 336 -137 388 -60 26 -50 29 -116 -30 -19 -17 -21 -17
-33 -1 -7 9 -10 21 -7 26 3 5 -2 16 -12 23 -15 11 -63 14 -219 15 l-201 0 -1
-227z m612 142 c32 -31 32 -45 -1 -45 -21 0 -25 -4 -21 -19 3 -12 -1 -22 -10
-25 -22 -9 -35 3 -28 24 5 15 0 19 -21 22 -39 4 -39 19 -1 45 42 28 53 28 82
-2z m-355 -80 c0 -9 -6 -12 -16 -8 -12 4 -14 0 -8 -22 5 -21 4 -27 -7 -23 -21
7 -23 40 -3 55 23 17 34 16 34 -2z m169 -100 c12 -12 17 -44 19 -140 3 -102 6
-125 19 -130 9 -3 20 0 25 7 6 11 8 11 8 0 0 -15 -43 -34 -48 -21 -2 5 -11 0
-20 -11 -10 -12 -26 -22 -36 -24 -11 -1 -20 -11 -22 -20 -1 -10 -6 -21 -10
-24 -4 -4 -4 1 -1 10 3 9 -1 22 -9 28 -11 10 -14 47 -14 183 l0 170 37 -6 c20
-4 44 -13 52 -22z m137 -2 c18 -24 17 -36 -3 -81 -9 -20 -15 -40 -15 -44 2
-10 -20 -10 -33 0 -14 10 -17 54 -6 71 8 12 12 12 25 2 12 -10 16 -9 25 8 7
12 7 22 2 25 -5 4 -11 0 -14 -6 -3 -10 -9 -9 -22 4 -10 9 -14 21 -11 27 11 17
37 13 52 -6z m-402 -16 c9 -15 7 -22 -13 -38 -22 -18 -25 -19 -34 -4 -5 9 -6
28 -3 41 8 29 33 29 50 1z m116 -37 c0 -11 -7 -23 -15 -27 -21 -8 -28 1 -20
26 8 27 35 27 35 1z m405 0 c3 -5 1 -10 -4 -10 -6 0 -11 5 -11 10 0 6 2 10 4
10 3 0 8 -4 11 -10z m-38 -66 c-3 -3 -12 -4 -19 -1 -8 3 -5 6 6 6 11 1 17 -2
13 -5z m-485 -21 c18 -22 10 -78 -12 -78 -8 0 -19 15 -25 33 -5 17 -13 32 -17
32 -4 0 -8 4 -8 9 0 8 13 14 41 20 3 0 13 -7 21 -16z m335 -45 c-3 -7 -5 -2
-5 12 0 14 2 19 5 13 2 -7 2 -19 0 -25z m-210 6 c-3 -3 -12 -4 -19 -1 -8 3 -5
6 6 6 11 1 17 -2 13 -5z m-97 -44 c0 -5 -4 -10 -10 -10 -5 0 -10 5 -10 10 0 6
5 10 10 10 6 0 10 -4 10 -10z m290 -33 c0 -5 -4 -5 -10 -2 -5 3 -10 14 -10 23
0 15 2 15 10 2 5 -8 10 -19 10 -23z m-233 -12 c5 -55 -5 -62 -38 -26 -35 39
-32 64 8 59 23 -2 28 -8 30 -33z m286 -31 c18 -7 11 -40 -11 -49 -17 -6 -32
11 -32 38 0 17 16 22 43 11z m77 -58 c0 -2 -7 -6 -15 -10 -8 -3 -15 -1 -15 4
0 6 7 10 15 10 8 0 15 -2 15 -4z m-114 -25 c0 -15 -3 -17 -13 -9 -7 6 -10 14
-7 19 9 15 20 10 20 -10z m62 -9 c-10 -2 -18 -11 -18 -19 0 -9 -3 -14 -6 -10
-3 3 -3 15 1 26 4 14 11 18 23 13 16 -6 16 -7 0 -10z m-250 -461 c-2 -12 -13
-15 -36 -13 -20 2 -32 -1 -32 -9 0 -7 -3 -10 -6 -6 -3 3 -3 14 0 25 9 26 79
28 74 3z"/>
<path d="M3280 4574 c0 -8 5 -12 10 -9 6 4 8 11 5 16 -9 14 -15 11 -15 -7z"/>
<path d="M3570 4470 l0 -689 300 -1 300 0 0 140 0 140 -125 0 -125 0 -1 28
c-1 25 0 133 1 225 l0 37 105 0 105 0 0 135 0 135 -105 0 -105 0 -1 103 c-1
56 0 112 1 125 1 12 -3 22 -9 22 -6 0 -11 -4 -11 -10 0 -5 -7 -10 -15 -10 -21
0 -19 23 5 51 l20 24 6 -22 c6 -22 11 -23 115 -23 l109 0 0 118 c0 116 -1 119
-25 132 -13 7 -22 17 -19 22 3 4 -37 8 -90 8 -66 0 -96 -4 -100 -12 -5 -10 -7
-10 -12 0 -4 9 -47 12 -165 12 l-159 0 0 -690z m288 657 c17 -11 15 -28 -2
-21 -8 3 -14 -1 -13 -8 1 -34 -4 -49 -15 -45 -7 2 -20 -9 -28 -25 -13 -24 -18
-26 -32 -16 -24 20 -31 63 -10 66 51 6 57 10 55 36 -2 26 15 31 45 13z m-224
-395 c4 -2 2 -8 -5 -13 -11 -7 -11 -9 2 -9 8 0 20 5 27 12 7 7 12 10 13 8 14
-76 -32 -91 -75 -25 -25 39 -7 52 38 27z m6 -93 c0 -6 -4 -7 -10 -4 -5 3 -10
11 -10 16 0 6 5 7 10 4 6 -3 10 -11 10 -16z m100 10 c0 -8 5 -7 15 1 19 16 32
5 17 -13 -17 -20 -99 -7 -87 14 9 13 55 11 55 -2z m-72 -94 c-3 -3 -13 -2 -22
1 -14 5 -15 9 -4 15 13 8 36 -6 26 -16z m59 7 c0 -10 -7 -25 -15 -32 -13 -11
-14 -11 -10 1 3 8 -2 20 -11 27 -9 8 -10 11 -3 7 6 -3 12 -1 12 4 0 6 6 11 14
11 8 0 14 -8 13 -18z m-80 -58 c-3 -3 -12 -4 -19 -1 -8 3 -5 6 6 6 11 1 17 -2
13 -5z m173 -14 c0 -5 -5 -10 -11 -10 -5 0 -7 5 -4 10 3 6 8 10 11 10 2 0 4
-4 4 -10z m-170 -210 c0 -5 -5 -10 -11 -10 -5 0 -7 5 -4 10 3 6 8 10 11 10 2
0 4 -4 4 -10z m7 -32 c6 15 43 16 43 1 0 -5 4 -8 9 -5 5 4 7 -2 4 -13 -3 -10
0 -22 7 -26 15 -9 -18 -34 -47 -35 -29 0 -53 10 -53 22 0 6 7 8 15 4 8 -3 15
-2 15 3 0 5 12 7 26 5 16 -1 24 2 21 9 -2 7 -13 12 -25 12 -11 0 -24 4 -28 8
-4 4 -14 1 -22 -6 -13 -11 -14 -9 -1 10 10 16 16 19 22 10 7 -9 10 -9 14 1z
m98 -38 c3 -5 1 -10 -4 -10 -6 0 -11 5 -11 10 0 6 2 10 4 10 3 0 8 -4 11 -10z
m25 -30 c0 -5 -5 -10 -11 -10 -5 0 -7 5 -4 10 3 6 8 10 11 10 2 0 4 -4 4 -10z
m-100 -134 c0 -14 -24 -29 -33 -19 -3 3 -3 11 0 19 7 18 33 18 33 0z m358 -79
c7 3 19 -2 25 -11 7 -9 24 -17 40 -18 28 -2 35 -12 17 -23 -5 -3 -10 -14 -10
-24 0 -29 -23 -42 -60 -34 -32 6 -33 7 -10 15 23 8 22 9 -18 39 -40 29 -50 47
-36 62 4 3 14 3 23 -2 9 -5 22 -6 29 -4z"/>
<path d="M3640 4680 c0 -5 5 -10 10 -10 6 0 10 5 10 10 0 6 -4 10 -10 10 -5 0
-10 -4 -10 -10z"/>
<path d="M4047 3923 c-3 -5 6 -14 19 -20 22 -10 25 -9 22 5 -3 18 -33 29 -41
15z"/>
<path d="M5092 4585 l-1 -575 24 0 c18 0 26 7 31 25 5 19 13 25 34 25 47 0 47
-62 0 -68 -14 -2 -29 -10 -33 -18 -5 -8 -12 -12 -18 -9 -5 4 -9 1 -9 -4 0 -18
5 -26 12 -24 5 2 8 -6 8 -17 0 -12 -6 -20 -12 -19 -31 4 -35 -3 -35 -61 l0
-60 144 0 c151 0 151 0 116 42 -16 18 -12 41 15 76 15 20 22 22 44 13 l27 -10
-2 602 c-2 563 -3 602 -19 601 -15 -1 -16 2 -6 20 6 11 16 24 21 28 6 4 -68 7
-165 7 l-176 1 0 -575z m302 293 c-7 -25 -25 -51 -30 -45 -2 2 1 18 7 35 12
36 34 45 23 10z m-154 -97 c0 -5 -6 -14 -14 -20 -11 -9 -19 -9 -35 1 -29 18
-26 23 14 25 19 2 35 -1 35 -6z m125 -61 c0 -28 26 -60 48 -60 16 0 19 -3 8
-9 -8 -5 -27 -3 -47 5 -37 15 -38 14 -58 -49 -3 -10 -12 -17 -19 -14 -13 4
-14 21 -2 50 7 17 6 18 -13 6 -12 -7 -25 -10 -29 -6 -11 12 19 28 45 24 13 -3
22 1 22 9 0 8 7 11 18 8 13 -4 12 -2 -3 7 -29 18 -29 17 -15 34 16 19 45 16
45 -5z m-5 -565 c10 -12 10 -15 0 -15 -8 0 -10 -8 -6 -24 8 -31 -7 -40 -36
-24 -13 7 -24 13 -26 14 -1 0 3 15 9 32 12 35 38 42 59 17z m-90 -226 c0 -5
-6 -9 -14 -9 -10 0 -13 -10 -11 -35 4 -40 2 -42 -23 -17 -14 14 -17 24 -10 42
15 40 29 52 44 39 8 -6 14 -15 14 -20z"/>
<path d="M5625 5086 c-4 -39 -9 -80 -11 -91 -7 -42 -17 -142 -18 -180 -1 -22
-4 -42 -8 -45 -3 -3 -9 -30 -12 -60 -7 -60 -22 -185 -36 -295 -15 -110 -49
-390 -54 -435 -2 -14 -6 -54 -10 -90 -4 -36 -9 -75 -12 -87 l-4 -23 179 0 179
0 4 93 c5 86 1 119 -9 90 -6 -16 -55 -6 -66 14 -5 7 -12 11 -18 8 -15 -10 -10
12 7 26 13 10 22 10 52 -1 26 -9 37 -10 40 -1 2 6 27 11 62 11 l57 0 6 -37 c4
-21 9 -75 13 -119 l7 -81 173 -2 c96 -1 174 1 174 5 0 4 -5 36 -11 71 -7 40
-15 61 -22 56 -7 -4 -8 0 -3 13 10 24 10 22 -3 124 -6 47 -13 101 -16 120 -2
19 -7 52 -11 73 -3 20 -7 47 -9 60 -1 12 -8 58 -14 102 -6 44 -15 112 -20 150
-13 94 -21 138 -27 144 -2 2 -4 -6 -4 -19 0 -17 -3 -20 -13 -12 -14 12 -57 5
-57 -9 0 -5 5 -9 12 -9 6 0 9 -2 6 -5 -3 -3 -13 -3 -22 1 -14 6 -11 12 20 40
20 19 41 31 47 27 7 -4 8 19 4 73 -3 43 -10 80 -16 82 -5 2 -21 14 -35 27 -14
13 -42 27 -61 31 -41 7 -46 13 -38 42 4 19 8 20 20 10 12 -10 18 -9 30 7 15
20 15 20 9 -1 -3 -11 0 -29 8 -39 11 -15 17 -17 28 -7 8 6 18 8 22 4 8 -7 -1
122 -13 180 -7 32 -9 33 -60 36 -30 2 -50 -1 -47 -6 3 -5 -1 -18 -8 -28 -9
-12 -11 -23 -5 -30 15 -18 -16 -25 -38 -9 -12 9 -13 14 -5 15 21 0 44 28 39
48 -4 16 -5 16 -6 0 -1 -19 -21 -26 -21 -8 0 6 -5 10 -11 10 -5 0 -8 -4 -5 -8
2 -4 1 -14 -5 -22 -7 -12 -9 -10 -9 7 0 12 -8 24 -17 27 -29 9 -122 5 -129 -5
-3 -5 -13 -5 -23 1 -10 5 -48 9 -84 8 l-65 -1 -7 -71z m85 55 c0 -5 -7 -14
-15 -21 -16 -14 -18 -10 -9 14 6 17 24 22 24 7z m181 -51 c5 0 9 -5 9 -10 0
-6 -11 -3 -25 6 -19 12 -22 18 -12 29 10 11 13 9 15 -6 2 -10 8 -19 13 -19z
m-134 15 c0 -8 -4 -12 -9 -9 -4 3 -8 -4 -8 -15 0 -12 -4 -21 -10 -21 -13 0
-13 3 2 35 12 28 25 33 25 10z m-47 -11 c0 -3 -13 -10 -30 -15 -33 -12 -40
-29 -12 -29 14 0 15 -2 2 -10 -23 -15 -30 -12 -30 13 0 16 9 27 28 34 33 13
42 15 42 7z m146 -33 c0 -11 -4 -17 -8 -15 -4 3 -8 12 -8 20 0 8 4 14 8 14 4
0 8 -9 8 -19z m134 -23 c0 -10 6 -18 13 -18 17 0 -14 -20 -32 -20 -11 0 -12 3
-4 11 12 12 6 42 -6 35 -4 -3 -7 4 -8 14 -2 17 1 18 18 7 10 -6 19 -20 19 -29z
m121 19 c-10 -9 -11 -8 -5 6 3 10 9 15 12 12 3 -3 0 -11 -7 -18z m-396 -27 c3
-5 1 -10 -4 -10 -6 0 -11 5 -11 10 0 6 2 10 4 10 3 0 8 -4 11 -10z m167 -24
c7 4 8 2 4 -5 -4 -6 -11 -9 -16 -6 -4 3 -10 -1 -13 -7 -2 -7 -7 -10 -11 -6 -4
3 -1 16 6 27 10 17 14 18 16 6 2 -8 8 -12 14 -9z m-207 -6 c3 -5 -4 -6 -15 -3
-11 3 -22 9 -25 13 -3 5 4 6 15 3 11 -3 22 -9 25 -13z m125 0 c0 -5 -7 -7 -15
-4 -8 4 -15 8 -15 10 0 2 7 4 15 4 8 0 15 -4 15 -10z m30 6 c0 -3 -4 -8 -10
-11 -5 -3 -10 -1 -10 4 0 6 5 11 10 11 6 0 10 -2 10 -4z m298 -17 c-2 -6 -8
-10 -13 -10 -5 0 -11 4 -13 10 -2 6 4 11 13 11 9 0 15 -5 13 -11z m-370 -7 c8
-6 2 -9 -18 -9 -20 0 -26 3 -18 9 7 4 15 8 18 8 3 0 11 -4 18 -8z m137 -23
c-5 -14 -2 -25 6 -30 11 -6 11 -11 1 -21 -17 -17 -15 -33 3 -18 9 7 19 10 22
6 4 -4 1 -11 -7 -16 -8 -6 -12 -10 -7 -11 4 -1 11 -2 15 -3 5 0 16 -9 25 -18
16 -16 16 -18 -5 -33 -20 -13 -21 -17 -8 -25 8 -5 10 -10 4 -10 -6 0 -19 10
-28 23 -16 21 -17 16 -10 -88 7 -116 8 -138 18 -250 4 -38 8 -96 11 -127 l5
-58 -52 0 -51 0 7 98 c8 124 14 191 21 222 3 14 7 52 10 85 3 32 7 67 10 76 4
12 -2 19 -19 23 -17 4 -26 15 -31 36 -4 16 -11 30 -16 30 -5 0 -9 8 -9 17 0
13 -3 14 -12 5 -9 -9 -8 -15 8 -26 10 -8 15 -18 11 -22 -4 -4 -14 2 -23 14 -8
12 -22 22 -30 22 -8 0 -14 5 -14 11 0 5 5 7 11 3 6 -3 22 0 36 7 20 11 26 11
32 0 12 -18 54 -4 47 15 -3 8 -2 12 3 9 5 -3 12 -1 16 5 3 5 -3 10 -14 10 -24
0 -26 12 -9 40 17 26 31 26 23 -1z m-154 -26 c-12 -20 -14 -14 -5 12 4 9 9 14
11 11 3 -2 0 -13 -6 -23z m89 -13 c0 -5 -2 -10 -4 -10 -3 0 -8 5 -11 10 -3 6
-1 10 4 10 6 0 11 -4 11 -10z m153 4 c9 -9 -4 -34 -18 -34 -8 0 -11 8 -8 20 5
20 15 25 26 14z m-353 -14 c0 -5 -2 -10 -4 -10 -3 0 -8 5 -11 10 -3 6 -1 10 4
10 6 0 11 -4 11 -10z m52 -17 c-1 -4 7 -16 15 -25 9 -10 12 -18 7 -18 -16 0
-34 23 -34 44 0 10 3 17 6 14 3 -4 6 -10 6 -15z m175 -5 c-3 -8 -6 -5 -6 6 -1
11 2 17 5 13 3 -3 4 -12 1 -19z m-111 -32 c9 -19 9 -23 -1 -19 -14 5 -28 43
-17 43 4 0 12 -11 18 -24z m-101 -36 c3 -5 1 -10 -4 -10 -6 0 -11 5 -11 10 0
6 2 10 4 10 3 0 8 -4 11 -10z m81 -18 c0 -10 -5 -19 -11 -19 -6 0 -23 -3 -38
-7 -16 -4 -27 -2 -27 4 0 5 13 10 29 10 16 0 31 6 35 15 7 20 12 19 12 -3z
m79 -52 c3 -5 1 -10 -4 -10 -6 0 -11 5 -11 10 0 6 2 10 4 10 3 0 8 -4 11 -10z
m-35 -30 c0 -5 -5 -10 -11 -10 -5 0 -7 5 -4 10 3 6 8 10 11 10 2 0 4 -4 4 -10z
m157 -12 c-3 -8 -6 -5 -6 6 -1 11 2 17 5 13 3 -3 4 -12 1 -19z m162 -34 c-6
-8 -18 -14 -25 -14 -19 0 -18 -10 4 -26 15 -12 14 -12 -8 -7 -43 11 -50 43 -9
43 16 0 19 4 14 21 -6 19 -5 20 15 9 17 -9 19 -14 9 -26z m-124 -73 c3 -5 1
-12 -5 -16 -5 -3 -10 1 -10 9 0 18 6 21 15 7z m123 -54 c3 -12 -1 -15 -14 -10
-10 4 -15 2 -11 -4 3 -5 0 -10 -8 -10 -19 0 -19 16 0 23 8 4 12 11 9 16 -4 6
-1 9 7 6 8 -3 15 -12 17 -21z m-127 -30 c-13 -13 -26 -3 -16 12 3 6 11 8 17 5
6 -4 6 -10 -1 -17z m-1 -27 c0 -5 -7 -10 -16 -10 -8 0 -12 5 -9 10 3 6 10 10
16 10 5 0 9 -4 9 -10z m76 -108 c-13 -14 -15 -12 -12 14 6 48 7 50 17 25 7
-18 6 -28 -5 -39z m-41 3 c0 -14 -6 -25 -12 -25 -16 0 -16 6 -3 31 14 25 15
24 15 -6z m100 -5 c3 -6 -1 -7 -9 -4 -18 7 -21 14 -7 14 6 0 13 -4 16 -10z
m73 -14 c-2 -1 -15 -10 -30 -19 -27 -17 -28 -17 -28 0 0 13 8 18 30 19 17 1
29 0 28 0z m32 -66 c0 -5 -2 -10 -4 -10 -3 0 -8 5 -11 10 -3 6 -1 10 4 10 6 0
11 -4 11 -10z m-29 -171 c6 -13 6 -19 0 -19 -7 0 -7 -9 -1 -26 14 -35 13 -37
-10 -31 -11 3 -23 0 -27 -6 -4 -7 -10 -3 -15 9 -6 14 -7 11 -5 -13 3 -26 0
-33 -14 -33 -23 0 -31 25 -18 54 8 17 8 29 0 45 -12 21 -3 29 15 12 5 -6 14
-4 22 5 7 8 10 14 7 14 -3 0 -4 4 0 10 8 13 34 1 46 -21z m-271 -9 c11 -11 31
-20 45 -20 19 0 23 -4 18 -17 -4 -10 -14 -26 -23 -35 -16 -17 -18 -17 -38 7
-12 14 -28 25 -36 25 -20 0 -32 40 -15 51 20 13 27 11 49 -11z m-100 -10 c0
-5 -4 -10 -10 -10 -5 0 -10 5 -10 10 0 6 5 10 10 10 6 0 10 -4 10 -10z m31
-30 c5 0 9 -4 9 -10 0 -5 -7 -7 -15 -4 -9 4 -14 17 -14 33 2 23 2 24 6 4 2
-13 9 -23 14 -23z m-163 -82 c7 -7 12 -20 12 -30 0 -10 5 -18 10 -18 6 0 10 8
10 17 0 9 3 14 6 10 4 -3 3 -14 -1 -24 -5 -10 -7 -24 -6 -31 2 -10 -2 -11 -17
-3 -15 8 -23 7 -32 -4 -6 -8 -9 -18 -6 -23 3 -6 -1 -15 -8 -22 -12 -9 -19 -7
-35 9 -27 27 -27 61 -2 68 12 3 17 11 14 19 -13 36 27 60 55 32z m32 -129 c0
-5 -7 -9 -15 -9 -9 0 -12 6 -9 15 6 15 24 11 24 -6z"/>
<path d="M5886 4861 c-4 -7 -5 -15 -2 -18 9 -9 19 4 14 18 -4 11 -6 11 -12 0z"/>
<path d="M5920 4829 c0 -5 5 -7 10 -4 6 3 10 8 10 11 0 2 -4 4 -10 4 -5 0 -10
-5 -10 -11z"/>
<path d="M6341 5092 c0 -37 3 -61 6 -54 6 16 40 16 45 0 7 -21 -15 -37 -34
-27 -17 9 -18 -18 -18 -501 0 -453 2 -513 16 -535 9 -14 12 -25 6 -25 -6 0
-13 8 -15 18 -3 9 -5 -29 -6 -86 l-1 -103 265 2 c182 1 268 5 272 13 4 6 9 69
10 139 l4 129 -93 -2 c-51 -1 -99 -1 -105 -1 -10 1 -13 80 -13 359 0 273 -3
361 -12 371 -10 11 -10 13 0 7 8 -5 12 1 12 18 0 14 -4 26 -10 26 -5 0 -10 -5
-10 -12 0 -6 -3 -8 -6 -5 -4 4 -2 13 4 20 7 8 9 17 5 20 -3 4 -1 7 5 7 17 0
16 221 0 239 -10 11 -10 13 0 7 8 -5 12 1 12 18 0 22 -5 26 -29 26 -16 0 -32
-6 -34 -12 -4 -10 -6 -10 -6 0 -1 15 -51 16 -51 1 0 -8 -4 -9 -13 0 -8 6 -53
11 -110 10 l-97 -1 1 -66z m262 34 c3 -8 0 -22 -8 -33 -13 -17 -14 -17 -33 2
-17 18 -17 21 -3 32 21 16 38 16 44 -1z m-19 -160 c-21 -15 -30 -14 -19 3 3 6
14 11 23 11 13 0 13 -2 -4 -14z m37 -9 c-10 -9 -11 -8 -5 6 3 10 9 15 12 12 3
-3 0 -11 -7 -18z m29 -11 c0 -3 -4 -8 -10 -11 -5 -3 -10 -1 -10 4 0 6 5 11 10
11 6 0 10 -2 10 -4z m-48 -78 c-1 -5 6 -8 17 -8 14 0 17 -6 13 -25 -6 -34 -16
-38 -40 -17 -16 14 -18 22 -10 36 8 14 7 21 -3 27 -20 12 -29 11 -29 -3 0 -9
-3 -9 -9 1 -7 11 -3 18 12 26 18 9 25 8 37 -9 8 -12 14 -24 12 -28z m-56 -22
c16 -17 18 -26 4 -26 -5 0 -14 9 -20 20 -12 23 -5 26 16 6z m4 -796 c0 -19 -5
-30 -14 -30 -8 0 -17 -7 -20 -16 -3 -8 -10 -12 -16 -9 -14 9 6 45 25 45 8 0
15 9 15 20 0 11 2 20 5 20 3 0 5 -13 5 -30z m218 -31 c9 -1 20 -1 24 -1 3 1 9
-5 12 -13 4 -11 -2 -15 -23 -15 -16 0 -31 -6 -34 -12 -7 -20 -16 -5 -23 37 -5
36 -5 37 11 22 9 -10 24 -18 33 -18z m-126 -111 c22 -27 43 -27 64 0 6 8 16
12 22 8 7 -4 10 -2 7 6 -4 9 2 14 15 15 14 1 18 -2 13 -10 -4 -7 -6 -20 -5
-30 7 -39 -55 -68 -82 -38 -16 18 -19 18 -49 3 -18 -8 -39 -19 -48 -23 -12 -5
-25 1 -45 23 -25 27 -26 29 -6 19 12 -7 27 -9 34 -5 6 4 0 11 -17 18 l-28 12
33 38 34 38 18 -23 c11 -13 28 -36 40 -51z"/>
<path d="M6577 3944 c-9 -10 2 -24 18 -24 9 0 12 6 9 15 -6 16 -17 19 -27 9z"/>
<path d="M6540 3920 c0 -5 5 -10 11 -10 5 0 7 5 4 10 -3 6 -8 10 -11 10 -2 0
-4 -4 -4 -10z"/>
<path d="M8050 4654 c0 -278 4 -503 8 -500 5 3 16 -4 25 -15 9 -10 14 -19 11
-19 -4 0 -1 -7 6 -15 6 -8 9 -23 5 -35 -5 -16 -10 -18 -25 -10 -10 6 -21 10
-25 10 -3 0 -4 -64 -3 -142 l3 -143 135 1 c74 1 150 5 168 9 l32 7 0 274 0
274 105 0 105 0 0 91 c0 77 -2 90 -15 85 -8 -3 -15 -1 -15 4 0 6 7 10 15 10
11 0 15 11 15 41 l0 41 -77 -2 c-43 -2 -90 -2 -105 -1 l-28 1 0 130 0 130 60
0 c47 0 60 3 60 15 0 8 9 15 20 15 11 0 23 -7 26 -15 4 -9 19 -15 40 -15 l34
0 0 75 c0 74 0 75 -26 75 -21 0 -25 -4 -21 -19 3 -12 -1 -22 -11 -26 -18 -7
-33 12 -25 32 3 9 -3 13 -20 13 -40 0 -41 16 -4 44 41 31 47 32 81 5 l26 -20
0 50 0 51 -47 0 c-42 0 -53 -5 -91 -40 -24 -22 -48 -38 -53 -35 -5 4 -7 11 -4
16 4 5 1 9 -5 9 -6 0 -8 5 -5 11 4 6 -1 17 -11 24 -15 11 -59 14 -191 15
l-173 0 0 -506z m200 341 c0 -9 -6 -12 -16 -8 -12 4 -14 0 -8 -21 8 -32 -12
-36 -22 -4 -4 15 -1 25 12 35 23 17 34 17 34 -2z m-100 -110 c14 -17 7 -43
-15 -52 -24 -8 -37 10 -29 41 7 29 25 34 44 11z m120 -44 c0 -24 -18 -37 -31
-24 -13 13 -1 43 17 43 8 0 14 -9 14 -19z m-118 -85 c16 -12 16 -28 2 -75 -6
-19 -44 15 -44 40 0 10 -5 21 -12 25 -8 5 -6 10 8 15 26 10 27 10 46 -5z m38
-86 c0 -5 -7 -10 -15 -10 -8 0 -15 5 -15 10 0 6 7 10 15 10 8 0 15 -4 15 -10z
m47 -52 c4 -50 -10 -55 -40 -14 -28 36 -21 59 18 54 15 -2 20 -12 22 -40z
m289 -23 c12 -11 7 -36 -10 -47 -14 -9 -36 10 -36 32 0 30 21 37 46 15z m-162
-45 c-6 -6 -10 -2 -11 12 -2 16 1 18 10 9 7 -7 8 -14 1 -21z m126 -30 c0 -5
-7 -10 -16 -10 -8 0 -12 5 -9 10 3 6 10 10 16 10 5 0 9 -4 9 -10z m70 -21 c0
-4 -7 -6 -15 -3 -8 4 -15 10 -15 15 0 4 7 6 15 3 8 -4 15 -10 15 -15z m-20
-13 c0 -3 -4 -8 -10 -11 -5 -3 -10 -1 -10 4 0 6 5 11 10 11 6 0 10 -2 10 -4z
m-291 -312 c-6 -7 -22 -11 -37 -9 -35 4 -34 3 -28 14 3 5 22 9 41 8 26 -1 32
-4 24 -13z m-86 -21 c-7 -3 -13 -11 -13 -19 0 -8 -4 -14 -10 -14 -16 0 -12 27
6 34 9 3 12 11 8 18 -4 9 -2 8 7 -1 11 -10 11 -15 2 -18z m127 -106 c0 -9 -12
-14 -30 -14 -32 0 -29 12 5 20 11 3 21 5 23 6 1 0 2 -5 2 -12z m2 -99 c-7 -7
-12 -8 -12 -2 0 14 12 26 19 19 2 -3 -1 -11 -7 -17z"/>
<path d="M8670 4580 c0 -546 1 -580 17 -580 17 -1 17 -1 1 -14 -15 -11 -18
-30 -18 -110 l0 -96 170 1 170 1 0 284 0 284 105 0 105 0 0 135 0 135 -105 0
-105 0 0 130 0 130 38 0 c26 0 41 6 50 20 13 22 47 16 38 -6 -4 -11 8 -14 54
-14 l60 0 0 140 0 140 -64 0 c-42 0 -66 -4 -70 -12 -5 -10 -7 -10 -12 0 -4 9
-58 12 -219 12 l-214 0 -1 -580z m384 550 c14 -5 26 -14 26 -19 0 -6 -6 -8
-14 -5 -8 3 -14 -1 -13 -8 1 -37 -4 -50 -17 -45 -14 6 -33 -26 -28 -45 1 -5
-2 -8 -7 -8 -12 0 -41 29 -41 40 0 5 -2 15 -5 22 -3 8 2 14 12 15 47 4 58 10
56 37 -2 30 -3 29 31 16z m-329 -360 c3 -5 1 -10 -4 -10 -6 0 -11 5 -11 10 0
6 2 10 4 10 3 0 8 -4 11 -10z m55 -10 c0 -5 -4 -10 -10 -10 -5 0 -10 5 -10 10
0 6 5 10 10 10 6 0 10 -4 10 -10z m52 -21 c17 -9 18 -13 7 -20 -12 -7 -11 -9
2 -9 8 0 20 5 27 12 9 9 13 7 18 -6 8 -21 -15 -68 -30 -59 -7 4 -6 8 2 11 7 2
12 9 12 15 0 8 -4 7 -12 -1 -7 -7 -15 -12 -19 -12 -13 0 -50 60 -44 70 8 13
12 13 37 -1z m141 -83 c12 4 17 1 17 -10 0 -26 -39 -35 -71 -17 -16 9 -25 19
-21 22 12 11 47 15 53 7 3 -5 13 -6 22 -2z m-123 -17 c0 -11 -4 -17 -10 -14
-5 3 -10 13 -10 21 0 8 5 14 10 14 6 0 10 -9 10 -21z m125 -68 c9 -16 -26 -29
-70 -26 -22 2 -41 3 -42 4 -9 3 -18 0 -18 -6 0 -5 -4 -14 -8 -20 -11 -18 -2
-16 17 3 13 13 16 13 16 1 0 -21 -26 -41 -35 -27 -4 6 -13 9 -20 6 -7 -2 -21
2 -32 9 -13 10 -15 17 -6 25 8 9 13 7 18 -10 5 -17 9 -19 21 -9 8 7 13 18 10
26 -3 8 3 17 14 21 32 11 128 13 135 3z m-45 -52 c0 -6 -4 -7 -10 -4 -5 3 -10
11 -10 16 0 6 5 7 10 4 6 -3 10 -11 10 -16z m100 -29 c0 -5 -5 -10 -11 -10 -5
0 -7 5 -4 10 3 6 8 10 11 10 2 0 4 -4 4 -10z m-245 -70 c3 -5 1 -10 -4 -10 -6
0 -11 5 -11 10 0 6 2 10 4 10 3 0 8 -4 11 -10z m-5 -32 c0 -5 -9 -4 -20 2 -11
6 -18 15 -14 21 6 11 34 -7 34 -23z m-40 -8 c0 -5 -8 -10 -17 -10 -15 0 -16 2
-3 10 19 12 20 12 20 0z m184 -36 c3 -8 2 -12 -4 -9 -6 3 -10 10 -10 16 0 14
7 11 14 -7z m-7 -113 c15 -32 0 -61 -32 -61 -50 0 -78 26 -30 29 50 3 55 5 52
15 -2 6 -13 12 -25 14 -14 2 -19 8 -15 18 8 21 35 13 50 -15z m-27 -186 c0 -8
-7 -15 -15 -15 -8 0 -15 7 -15 15 0 8 7 15 15 15 8 0 15 -7 15 -15z"/>
<path d="M9290 4550 c0 -574 1 -610 18 -611 9 -1 20 -1 25 0 11 2 9 -17 -3
-24 -5 -3 -10 -14 -10 -24 0 -10 -7 -24 -15 -31 -8 -7 -15 -28 -15 -46 l0 -34
108 0 c76 1 102 4 90 11 -31 18 -10 36 40 35 54 -2 76 -12 68 -32 -4 -12 19
-14 139 -14 l144 0 0 140 1 140 -125 0 -125 0 0 144 c0 167 -11 154 123 151
l87 -2 -1 76 c-1 42 -3 68 -6 58 -5 -18 -5 -18 -26 0 -20 17 -20 17 -14 0 5
-13 3 -17 -5 -14 -7 2 -13 11 -13 20 0 9 -6 22 -13 29 -6 6 -12 18 -12 25 0
19 -18 16 -22 -3 -2 -10 -15 -18 -30 -20 -17 -1 -25 2 -22 9 6 16 63 48 74 42
4 -2 15 4 25 15 24 27 31 25 39 -10 8 -41 26 -38 26 5 l0 35 -105 0 -105 0 0
119 0 119 -36 41 c-20 22 -41 38 -45 35 -5 -3 -9 -1 -9 4 0 5 -11 7 -25 4 -14
-2 -25 0 -25 5 0 6 -18 15 -41 22 -36 11 -40 15 -37 40 2 20 -9 40 -42 79 -25
29 -51 52 -58 52 -7 0 -10 5 -7 10 3 6 1 10 -4 10 -8 0 -11 -187 -11 -610z
m139 393 c-7 -10 -14 -20 -16 -22 -1 -1 -7 0 -13 4 -14 9 6 35 27 35 13 0 13
-3 2 -17z m126 -37 c15 6 16 5 4 -15 -16 -25 -34 -27 -43 -5 -10 27 -7 37 8
25 7 -6 21 -8 31 -5z m-55 -66 c0 -5 -2 -10 -4 -10 -3 0 -8 5 -11 10 -3 6 -1
10 4 10 6 0 11 -4 11 -10z m33 -89 c3 -11 2 -22 -1 -25 -6 -7 -42 -8 -42 -2 0
2 -3 11 -6 19 -5 13 4 20 37 26 4 0 9 -8 12 -18z m-43 -243 c0 -19 -2 -20 -10
-8 -8 13 -10 12 -10 -3 0 -10 -4 -16 -9 -13 -13 9 -1 46 15 46 8 0 14 -10 14
-22z m-53 -20 c2 -17 0 -19 -7 -8 -5 8 -6 18 -4 22 8 12 10 10 11 -14z m90
-281 c-24 -26 -35 -25 -46 5 -6 18 -8 18 -36 -9 -26 -24 -35 -27 -72 -22 -24
3 -46 8 -49 12 -12 11 17 36 33 30 11 -4 14 -2 9 5 -4 6 1 11 11 11 32 0 68 7
89 19 12 6 24 8 28 4 4 -3 4 2 0 13 -5 14 3 10 24 -13 l31 -32 -22 -23z m-97
-166 c0 -10 -7 -21 -15 -25 -16 -6 -19 3 -9 28 8 22 24 20 24 -3z m160 -81 c0
-5 -7 -7 -15 -4 -8 4 -15 8 -15 10 0 2 7 4 15 4 8 0 15 -4 15 -10z m180 -29
c0 -5 -7 -14 -15 -21 -12 -10 -15 -10 -15 2 0 8 3 18 7 21 9 10 23 9 23 -2z
m56 -27 c7 -27 -1 -54 -15 -54 -6 0 -13 11 -17 25 -3 14 -10 22 -15 19 -5 -3
-9 0 -9 5 0 6 5 11 10 11 6 0 10 7 10 15 0 23 29 6 36 -21z"/>
<path d="M9370 5143 c0 -15 -2 -16 -10 -3 -8 13 -10 13 -10 -1 0 -10 10 -19
24 -21 19 -4 25 0 29 19 3 17 0 23 -14 23 -11 0 -19 -7 -19 -17z"/>
<path d="M9440 5146 c0 -7 -7 -19 -15 -26 -20 -17 -9 -33 15 -20 35 19 41 12
35 -39 -6 -57 3 -65 58 -48 38 12 65 53 59 90 -2 9 2 17 7 17 6 0 10 3 9 8 -2
4 2 9 7 12 6 3 11 -11 13 -30 2 -19 10 -42 18 -51 8 -9 11 -19 7 -22 -3 -4 5
-7 19 -7 29 0 50 -20 39 -38 -5 -9 -11 -9 -26 2 -17 12 -22 11 -45 -6 l-26
-19 20 -44 c23 -47 45 -52 76 -16 8 9 23 20 33 24 23 9 22 28 -3 34 -28 7 -25
23 5 23 17 0 25 -6 25 -16 0 -9 7 -22 17 -29 16 -12 10 -40 -7 -30 -4 3 -10
-4 -13 -15 -5 -18 0 -20 44 -20 l49 0 0 140 0 140 -65 0 c-47 0 -63 -3 -60
-12 8 -21 -11 -40 -36 -36 -16 2 -25 11 -27 26 -3 21 -7 22 -118 22 -90 0
-114 -3 -114 -14z m373 -41 c-1 -15 3 -37 9 -49 11 -20 10 -21 -9 -3 -13 11
-19 26 -16 37 3 13 -1 22 -12 26 -13 5 -14 9 -3 15 21 14 33 4 31 -26z m-303
-74 c0 -6 -4 -13 -10 -16 -5 -3 -10 1 -10 9 0 9 5 16 10 16 6 0 10 -4 10 -9z"/>
<path d="M9940 5120 l0 -42 41 3 c27 2 43 -1 49 -11 13 -20 12 -26 -6 -44 -13
-14 -19 -14 -50 -1 l-34 14 0 -34 c0 -24 4 -33 13 -29 19 7 43 -25 51 -68 6
-32 4 -38 -11 -38 -13 0 -14 -3 -5 -12 8 -8 8 -17 1 -30 -16 -29 3 -43 60 -46
38 -1 51 2 51 12 0 7 7 19 15 26 8 7 15 22 15 34 0 26 39 54 50 36 10 -17 8
-31 -15 -79 -13 -26 -27 -41 -39 -41 -13 0 -17 -5 -13 -20 6 -23 -5 -26 -22
-6 -12 15 -46 11 -69 -7 -11 -9 -13 -6 -10 9 2 14 -4 20 -22 22 -21 3 -22 2
-11 -12 8 -10 9 -16 3 -16 -11 0 -27 19 -27 32 0 3 -3 10 -7 14 -5 4 -8 -99
-8 -229 0 -223 1 -237 18 -228 9 5 25 12 36 15 11 4 16 12 12 21 -10 26 1 16
23 -20 16 -28 17 -35 6 -35 -8 0 -24 -20 -35 -45 -12 -25 -24 -44 -28 -41 -5
3 -14 1 -22 -4 -11 -7 -11 -13 3 -34 21 -31 22 -50 2 -42 -13 5 -15 -10 -15
-97 l0 -103 30 -11 c17 -6 30 -16 30 -22 0 -5 -13 -18 -30 -28 -36 -21 -44
-69 -10 -60 10 3 24 -1 31 -9 9 -11 6 -14 -20 -14 -17 0 -31 -4 -31 -10 0 -6
63 -10 170 -10 l169 0 1 307 c0 168 2 308 4 311 11 10 67 -12 78 -31 8 -14 12
-73 12 -162 1 -132 2 -140 21 -144 11 -2 23 -8 26 -13 7 -11 -1 -58 -10 -56
-39 5 -41 1 -41 -107 l0 -105 111 0 111 0 -16 23 c-27 37 -29 47 -12 66 9 10
16 23 16 29 0 18 17 23 44 12 19 -7 25 -15 23 -32 -2 -12 -9 -24 -15 -26 -8
-2 -8 -8 0 -22 9 -14 9 -22 -1 -34 -12 -14 -9 -16 23 -16 l36 0 0 286 c0 276
-1 288 -22 325 -12 22 -25 39 -28 39 -15 0 -19 -14 -8 -27 8 -11 7 -12 -6 -7
-19 7 -22 30 -4 36 25 9 -22 44 -69 52 -26 4 -23 14 6 21 17 4 31 11 31 17 0
5 9 21 19 34 18 22 18 28 6 57 -8 19 -23 34 -39 38 -23 6 -26 4 -26 -17 0 -14
-6 -27 -13 -30 -8 -3 -14 -22 -15 -45 -1 -30 1 -38 11 -33 8 5 8 2 -2 -9 -7
-9 -11 -24 -7 -32 4 -10 -1 -15 -14 -15 -13 0 -26 14 -40 42 -24 50 -25 68 -5
68 8 0 15 -7 15 -15 0 -8 6 -15 13 -15 16 0 19 29 5 47 -6 7 -5 19 1 32 15 28
14 36 -4 21 -12 -10 -19 -10 -27 -2 -8 8 -4 13 15 17 14 4 31 4 36 0 6 -3 11
1 11 10 0 9 5 13 10 10 6 -3 10 -1 10 4 0 6 -7 11 -15 11 -18 0 -19 12 -3 28
16 16 50 15 46 0 -4 -23 21 -56 47 -62 18 -5 25 -13 25 -31 0 -34 18 -41 30
-10 13 34 13 155 0 155 -5 0 -10 5 -10 11 0 5 5 7 11 3 11 -7 8 127 -4 171
-19 69 -77 136 -147 168 -41 19 -69 21 -317 25 l-273 4 0 -42z m393 -207 c20
-5 39 -38 42 -73 1 -14 3 -33 3 -42 2 -16 28 -18 51 -3 18 10 23 -17 7 -33
-12 -13 -18 -13 -28 -4 -25 25 -35 12 -35 -44 0 -62 -12 -79 -61 -93 l-32 -10
-1 147 c0 93 -3 139 -9 126 -14 -34 -26 -36 -45 -7 -17 25 -17 27 1 40 17 12
53 11 107 -4z m271 -35 c-7 -25 -25 -51 -30 -45 -2 2 1 18 7 35 12 36 34 45
23 10z m-230 -294 c6 -10 15 -22 20 -25 4 -4 2 -10 -4 -14 -8 -5 -18 -1 -27
10 -13 18 -13 18 -27 0 -13 -18 -14 -18 -21 5 -5 17 -3 27 11 37 22 16 34 13
48 -13z m2 -68 c8 -8 11 -22 7 -32 -4 -12 -2 -15 8 -12 15 5 39 -14 39 -30 0
-16 -69 -6 -90 13 -19 17 -17 37 4 62 14 16 15 16 32 -1z m128 -77 c-8 -14
-24 -10 -24 6 0 9 6 12 15 9 8 -4 12 -10 9 -15z m-244 -183 c0 -15 -26 -46
-38 -46 -4 0 -13 4 -21 9 -11 7 -9 13 8 30 24 24 51 28 51 7z m-259 -79 c-1
-12 -15 -9 -19 4 -3 6 1 10 8 8 6 -3 11 -8 11 -12z m569 -37 c-7 -4 -8 -18 -4
-33 7 -30 -4 -34 -39 -14 -12 6 -23 13 -25 13 -5 2 23 59 33 66 5 4 18 0 28
-9 11 -11 14 -19 7 -23z m86 -120 c0 -11 -4 -20 -8 -20 -4 0 -8 9 -8 20 0 11
4 20 8 20 4 0 8 -9 8 -20z m-176 -91 c0 -5 -6 -9 -13 -9 -9 0 -12 -11 -9 -35
3 -21 0 -35 -7 -35 -6 0 -11 7 -11 15 0 8 -7 15 -15 15 -11 0 -12 5 -5 25 15
39 33 55 48 43 6 -6 12 -14 12 -19z m-220 1 c0 -5 -7 -10 -16 -10 -8 0 -12 5
-9 10 3 6 10 10 16 10 5 0 9 -4 9 -10z m-30 -61 c0 -6 -4 -7 -10 -4 -5 3 -10
11 -10 16 0 6 5 7 10 4 6 -3 10 -11 10 -16z"/>
<path d="M4340 5106 c-53 -39 -88 -91 -67 -99 8 -3 30 0 50 6 28 9 39 19 46
42 12 40 22 85 19 85 -2 0 -23 -16 -48 -34z m-40 -75 c0 -6 -4 -13 -10 -16 -5
-3 -10 1 -10 9 0 9 5 16 10 16 6 0 10 -4 10 -9z"/>
<path d="M7880 4970 c-16 -10 -8 -48 9 -42 11 4 13 0 9 -16 -4 -12 -2 -20 3
-17 5 3 16 -3 26 -14 17 -21 35 -20 28 2 -2 7 -9 30 -14 52 -10 40 -33 52 -61
35z"/>
<path d="M2662 4948 c2 -16 6 -24 11 -19 5 5 5 17 -2 28 -9 16 -10 15 -9 -9z"/>
<path d="M2595 4910 c-3 -5 -2 -10 4 -10 5 0 13 5 16 10 3 6 2 10 -4 10 -5 0
-13 -4 -16 -10z"/>
<path d="M7809 4915 c-1 -3 -2 -8 -3 -12 -1 -5 -4 -13 -8 -19 -4 -6 -5 -14 -1
-18 10 -10 20 -7 20 7 0 6 4 20 8 30 4 10 3 17 -4 17 -6 0 -12 -2 -12 -5z"/>
<path d="M2555 4900 c-3 -5 -1 -10 4 -10 6 0 11 5 11 10 0 6 -2 10 -4 10 -3 0
-8 -4 -11 -10z"/>
<path d="M9975 4890 c-3 -5 -2 -10 4 -10 5 0 13 5 16 10 3 6 2 10 -4 10 -5 0
-13 -4 -16 -10z"/>
<path d="M2585 4881 c-3 -5 -1 -12 4 -15 5 -3 11 1 15 9 6 16 -9 21 -19 6z"/>
<path d="M9940 4869 c0 -11 5 -17 10 -14 6 3 10 13 10 21 0 8 -4 14 -10 14 -5
0 -10 -9 -10 -21z"/>
<path d="M1726 4865 c-3 -9 0 -15 8 -15 7 0 13 7 13 15 0 8 -4 15 -8 15 -4 0
-9 -7 -13 -15z"/>
<path d="M7177 4770 c-3 -11 -1 -20 4 -20 5 0 9 9 9 20 0 11 -2 20 -4 20 -2 0
-6 -9 -9 -20z"/>
<path d="M2305 4700 c3 -5 11 -10 16 -10 6 0 7 5 4 10 -3 6 -11 10 -16 10 -6
0 -7 -4 -4 -10z"/>
<path d="M10640 4560 c-8 -5 -11 -12 -7 -16 4 -4 13 -2 19 4 15 15 7 24 -12
12z"/>
<path d="M1669 4530 c-11 -8 -12 -11 -1 -22 11 -11 13 -10 10 2 -2 10 4 14 20
12 12 -2 22 1 22 5 0 12 -33 13 -51 3z"/>
<path d="M1730 4530 c0 -5 5 -10 10 -10 6 0 10 5 10 10 0 6 -4 10 -10 10 -5 0
-10 -4 -10 -10z"/>
<path d="M1648 4483 c19 -8 14 -17 -18 -31 -16 -8 -30 -20 -30 -27 0 -8 -10
-17 -22 -21 -12 -3 -31 -15 -42 -25 -11 -11 -26 -19 -35 -19 -22 0 -50 30 -44
46 6 16 -42 20 -52 4 -4 -6 -13 -7 -23 -1 -33 16 -42 2 -42 -64 0 -64 14 -87
39 -62 9 9 16 8 31 -1 23 -14 60 -16 60 -2 0 5 9 14 20 20 16 8 28 7 51 -4 26
-13 31 -13 36 0 3 8 0 21 -7 29 -15 18 -7 31 11 19 7 -4 27 -9 44 -11 19 -2
44 -18 69 -43 21 -22 41 -40 45 -40 9 0 4 152 -6 159 -4 3 -8 13 -8 21 0 8 -4
15 -10 15 -15 1 -52 24 -37 25 6 0 12 5 12 10 0 6 -12 10 -27 9 -16 0 -22 -3
-15 -6z"/>
<path d="M1340 4440 c0 -11 2 -20 5 -20 2 0 9 9 15 20 9 16 8 20 -5 20 -8 0
-15 -9 -15 -20z"/>
<path d="M1463 4453 c-18 -7 -16 -23 2 -23 8 0 15 7 15 15 0 8 -1 15 -2 14 -2
0 -9 -3 -15 -6z"/>
<path d="M1340 4241 c0 -17 5 -31 10 -31 6 0 10 11 10 24 0 14 -4 28 -10 31
-6 4 -10 -7 -10 -24z"/>
<path d="M1439 4242 c-1 -4 -1 -10 0 -14 0 -4 -7 -4 -16 -1 -13 5 -15 2 -11
-15 7 -26 -9 -29 -29 -4 -13 15 -14 13 -8 -20 7 -42 4 -45 -19 -22 -15 14 -16
10 -16 -39 0 -35 5 -59 14 -67 13 -10 15 -7 13 16 -2 22 3 29 25 34 31 9 46
-11 22 -30 -8 -7 -14 -23 -14 -36 0 -13 -5 -24 -11 -24 -5 0 -7 -6 -3 -12 4
-7 -2 -5 -13 5 -23 20 -39 11 -20 -11 9 -13 9 -14 0 -8 -9 5 -13 0 -13 -13 0
-13 12 -26 30 -36 17 -9 30 -11 30 -6 0 5 -5 11 -12 13 -8 3 -6 6 4 10 11 5
17 -1 21 -18 4 -23 2 -25 -20 -19 -30 7 -52 -17 -53 -57 0 -32 15 -36 42 -11
11 9 18 11 18 5 0 -7 -4 -12 -10 -12 -5 0 -7 -7 -3 -16 5 -14 8 -13 18 6 7 13
15 19 18 13 3 -5 2 -14 -2 -21 -10 -16 -49 -24 -56 -11 -14 22 -26 6 -23 -33
2 -34 7 -43 20 -42 10 1 15 -2 12 -7 -3 -5 -1 -9 5 -9 5 0 11 -10 13 -22 2
-14 12 -24 28 -28 24 -6 24 -6 5 -18 -17 -10 -12 -11 28 -7 36 3 47 1 47 -10
0 -18 -23 -32 -28 -17 -7 21 -38 13 -52 -12 -10 -19 -19 -24 -46 -21 l-34 2 0
-143 c0 -78 4 -153 9 -166 5 -13 24 -41 43 -62 l34 -39 64 13 c36 6 74 12 85
13 11 0 23 5 27 11 9 13 93 -14 93 -29 0 -5 -13 -16 -28 -23 -15 -7 -27 -16
-27 -20 0 -8 830 -6 838 2 3 3 0 6 -6 6 -21 0 -13 20 12 30 13 5 34 19 46 32
14 15 24 19 27 11 6 -16 69 22 85 52 7 12 21 37 32 55 l18 33 -30 28 -30 28
-310 1 c-171 0 -335 5 -366 11 -59 11 -112 37 -154 76 -14 13 -30 23 -37 23
-7 0 -15 8 -17 18 -3 10 -21 23 -42 29 -20 6 -34 7 -30 2 3 -5 0 -9 -5 -9 -6
0 -11 9 -11 19 0 16 -5 19 -26 15 -14 -3 -23 -1 -20 4 7 12 56 22 56 12 0 -12
28 -20 44 -14 11 4 13 12 5 32 -9 25 -8 26 6 8 8 -11 15 -16 16 -10 4 50 3 77
-4 81 -4 2 -4 9 0 16 9 14 12 207 3 207 -4 0 -12 17 -18 38 -10 31 -9 39 4 49
14 10 16 28 15 95 -1 45 -4 85 -7 89 -2 4 -18 0 -34 -9 -24 -14 -26 -18 -12
-23 10 -3 22 0 28 9 9 12 11 11 10 -9 -1 -31 -11 -38 -50 -33 -31 3 -31 3 -5
-7 19 -7 25 -15 22 -28 -5 -18 -53 -37 -53 -21 0 4 -11 6 -25 5 -14 -2 -23 1
-20 6 13 20 13 72 0 85 -9 10 -16 11 -20 3 -4 -6 -14 -8 -22 -5 -8 3 -25 -1
-39 -10 -22 -15 -24 -15 -18 0 3 9 10 13 15 10 15 -9 10 13 -6 26 -8 7 -22 10
-30 6 -9 -3 -14 -2 -11 3 3 5 -1 11 -9 15 -8 3 -16 2 -16 -2z m-24 -110 c-3
-3 -11 0 -18 7 -9 10 -8 11 6 5 10 -3 15 -9 12 -12z m315 -6 c0 -3 -4 -8 -10
-11 -5 -3 -10 -1 -10 4 0 6 5 11 10 11 6 0 10 -2 10 -4z m-217 -43 c3 -5 -1
-14 -9 -20 -14 -14 -30 0 -19 17 7 12 22 13 28 3z m-43 -7 c0 -9 -30 -14 -35
-6 -4 6 3 10 14 10 12 0 21 -2 21 -4z m125 -36 c-3 -5 -12 -10 -18 -10 -7 0
-6 4 3 10 19 12 23 12 15 0z m-25 -26 c0 -2 -9 -4 -21 -4 -11 0 -18 4 -14 10
5 8 35 3 35 -6z m77 -26 c-3 -8 -6 -5 -6 6 -1 11 2 17 5 13 3 -3 4 -12 1 -19z
m67 -14 c3 -8 -1 -14 -10 -14 -8 0 -12 5 -9 10 3 6 1 10 -4 10 -6 0 -11 4 -11
10 0 14 27 1 34 -16z m-244 -35 c0 -11 -37 -12 -43 -1 -3 4 6 8 19 8 13 1 24
-2 24 -7z m46 2 c-8 -13 36 -22 50 -10 8 6 14 5 18 -6 3 -9 11 -13 16 -10 6 4
9 1 8 -7 -2 -7 2 -12 9 -11 7 2 10 -3 7 -10 -2 -7 2 -21 10 -32 10 -12 15 -15
16 -7 0 8 5 10 12 6 7 -5 9 -2 5 9 -3 8 0 21 8 27 11 9 12 7 8 -12 -3 -13 -10
-28 -15 -35 -5 -7 -4 -13 4 -17 7 -3 3 -3 -9 0 -26 6 -28 2 -11 -26 10 -16 10
-24 0 -40 -7 -11 -9 -20 -5 -19 19 3 33 -2 33 -11 0 -5 -10 -10 -21 -10 -17 0
-20 -5 -17 -25 6 -30 4 -31 -21 -6 -14 14 -16 22 -7 31 8 10 6 12 -12 7 -14
-3 -22 -1 -21 6 4 20 -23 66 -42 72 -24 8 -33 35 -11 36 9 1 21 1 26 0 5 -1 4
4 -2 12 -7 8 -9 17 -5 20 3 4 1 7 -6 7 -7 0 -11 -6 -8 -14 4 -9 -4 -16 -21
-19 -15 -3 -28 -1 -30 4 -2 5 -10 2 -19 -6 -22 -22 -36 -18 -22 6 8 15 8 19 0
15 -6 -4 -11 -2 -11 3 0 6 3 11 8 11 4 0 16 13 27 29 10 16 22 28 26 25 4 -2
10 0 14 6 3 5 8 10 11 10 3 0 3 -4 0 -9z m134 -21 c0 -5 -8 -10 -17 -10 -15 0
-16 2 -3 10 19 12 20 12 20 0z m-246 -18 c3 -5 -1 -9 -9 -9 -8 0 -15 4 -15 9
0 4 4 8 9 8 6 0 12 -4 15 -8z m31 -120 c-3 -3 -11 0 -18 7 -9 10 -8 11 6 5 10
-3 15 -9 12 -12z m42 3 c0 -8 -4 -12 -9 -9 -4 3 -8 9 -8 15 0 5 4 9 8 9 5 0 9
-7 9 -15z m43 1 c0 -8 -7 -16 -15 -20 -13 -4 -14 -2 -5 14 13 23 20 26 20 6z
m-125 -26 c10 -11 14 -20 9 -20 -5 0 -15 9 -22 20 -7 11 -11 20 -9 20 2 0 12
-9 22 -20z m40 -10 c3 -5 1 -10 -4 -10 -6 0 -11 5 -11 10 0 6 2 10 4 10 3 0 8
-4 11 -10z m75 -4 c0 -11 -19 -15 -25 -6 -3 5 1 10 9 10 9 0 16 -2 16 -4z
m210 -20 c0 -8 3 -21 6 -29 4 -12 0 -14 -16 -10 -13 4 -19 11 -16 20 3 8 6 19
6 24 0 5 5 9 10 9 6 0 10 -6 10 -14z m-225 -24 c-3 -3 -11 0 -18 7 -9 10 -8
11 6 5 10 -3 15 -9 12 -12z m45 4 c0 -3 -4 -8 -10 -11 -5 -3 -10 -1 -10 4 0 6
5 11 10 11 6 0 10 -2 10 -4z m93 -49 c4 3 7 4 7 0 0 -17 -20 -14 -36 6 -19 22
-19 22 2 4 11 -9 24 -14 27 -10z m71 -28 c-3 -5 -10 -7 -15 -3 -5 3 -7 10 -3
15 3 5 10 7 15 3 5 -3 7 -10 3 -15z m-104 -4 c0 -8 -4 -15 -10 -15 -5 0 -7 7
-4 15 4 8 8 15 10 15 2 0 4 -7 4 -15z m-132 -40 c-3 -3 -9 2 -12 12 -6 14 -5
15 5 6 7 -7 10 -15 7 -18z m-38 -25 c-14 -4 -38 -8 -55 -8 -44 -1 -3 14 44 15
32 1 33 0 11 -7z m-35 -80 c3 -5 1 -10 -4 -10 -6 0 -11 5 -11 10 0 6 2 10 4
10 3 0 8 -4 11 -10z m70 -22 c6 -6 5 -12 -5 -18 -9 -6 -19 -2 -32 12 -10 12
-18 23 -18 25 0 7 44 -8 55 -19z m263 -87 c15 -9 26 -71 12 -71 -14 0 -41 31
-34 41 3 5 -2 12 -10 15 -9 3 -16 10 -16 15 0 11 31 11 48 0z m795 -110 c-3
-12 -11 -17 -19 -14 -10 4 -11 10 -3 24 12 24 29 16 22 -10z m57 -11 c0 -5 -4
-10 -10 -10 -5 0 -10 5 -10 10 0 6 5 10 10 10 6 0 10 -4 10 -10z m-447 -62
c42 -2 48 -13 15 -22 -46 -12 -87 1 -74 23 4 6 11 9 15 7 4 -3 24 -6 44 -8z"/>
<path d="M8070 4090 c0 -5 5 -10 10 -10 6 0 10 5 10 10 0 6 -4 10 -10 10 -5 0
-10 -4 -10 -10z"/>
<path d="M5160 4009 c0 -5 5 -7 10 -4 6 3 10 8 10 11 0 2 -4 4 -10 4 -5 0 -10
-5 -10 -11z"/>
<path d="M5095 3990 c3 -5 8 -10 11 -10 2 0 4 5 4 10 0 6 -5 10 -11 10 -5 0
-7 -4 -4 -10z"/>
<path d="M9291 3904 c0 -11 3 -14 6 -6 3 7 2 16 -1 19 -3 4 -6 -2 -5 -13z"/>
<path d="M5430 3875 c0 -9 -7 -18 -15 -22 -14 -5 -14 -8 2 -26 13 -14 15 -21
6 -24 -18 -6 -16 -23 2 -23 12 0 15 13 15 55 0 30 -2 55 -5 55 -3 0 -5 -7 -5
-15z"/>
<path d="M11103 3875 c-10 -10 -9 -16 2 -25 8 -7 15 -19 15 -26 0 -8 4 -14 10
-14 11 0 8 22 -6 56 -7 18 -11 19 -21 9z"/>
<path d="M4378 3432 c-27 -2 -48 -7 -48 -13 0 -5 -5 -9 -11 -9 -5 0 -7 5 -4
10 4 6 -44 10 -137 10 -96 0 -138 -3 -128 -10 13 -8 12 -10 -2 -10 -10 0 -18
4 -18 8 0 4 -33 9 -72 10 -66 1 -71 0 -54 -13 11 -8 14 -15 8 -15 -7 0 -12 -5
-12 -11 0 -5 3 -8 8 -6 4 2 18 -7 32 -20 16 -16 18 -22 7 -17 -10 3 -17 1 -17
-6 0 -6 -5 -8 -11 -4 -8 4 -7 9 2 16 10 6 7 7 -9 3 -14 -4 -32 -1 -46 8 -15
10 -28 12 -37 6 -19 -12 -59 -12 -59 0 0 6 5 13 10 16 13 8 13 45 -1 45 -6 0
-20 -5 -31 -11 -15 -8 -19 -8 -14 0 5 7 -10 11 -46 11 -46 0 -55 -3 -63 -22
-7 -16 -20 -24 -44 -26 -20 -2 -31 0 -27 7 4 5 2 12 -4 16 -6 4 -8 10 -6 14 3
4 -13 8 -35 10 -34 2 -40 -1 -37 -16 2 -11 14 -19 31 -21 25 -3 40 -32 16 -32
-6 0 -19 -10 -28 -22 -16 -19 -21 -20 -51 -10 -18 7 -35 10 -37 8 -3 -2 -18
10 -35 27 -17 18 -36 31 -42 29 -6 -1 0 7 13 18 l23 20 -315 0 c-282 0 -316
-2 -321 -16 -7 -18 9 -33 67 -61 31 -15 37 -22 32 -41 -4 -15 -2 -21 5 -17 5
3 10 3 10 -2 -1 -23 -67 -73 -96 -73 -10 0 -26 -7 -35 -16 -27 -25 -107 -27
-138 -4 -22 15 -29 16 -44 5 -9 -7 -17 -19 -17 -28 0 -8 -6 -18 -12 -20 -7 -3
-3 -6 10 -7 53 -2 372 -1 373 2 0 2 -3 11 -7 21 -10 28 12 45 37 29 16 -10 24
-10 35 -1 10 8 14 8 14 0 0 -7 12 -9 34 -6 31 6 33 4 29 -20 -5 -22 -2 -25 23
-25 28 0 87 18 111 33 7 4 17 -1 25 -12 10 -14 27 -21 59 -22 65 -2 72 -1 65
17 -3 8 -2 12 4 9 6 -3 10 -2 10 4 0 5 -4 13 -10 16 -5 3 -10 11 -10 16 0 6 5
7 10 4 6 -3 10 -1 10 4 0 15 -15 14 -28 -1 -10 -13 -12 -19 -12 -36 0 -13 -68
-14 -76 -1 -4 8 -3 9 4 5 7 -4 12 -2 12 4 0 6 5 16 10 23 6 7 16 20 23 29 11
17 122 54 112 38 -2 -4 1 -20 7 -36 10 -27 8 -33 -16 -58 -14 -16 -26 -32 -26
-35 0 -3 47 -6 105 -6 60 0 105 4 105 9 0 6 3 6 9 0 6 -5 66 -7 146 -4 75 3
138 3 140 1 2 -2 52 -4 109 -5 80 -1 107 2 111 12 4 11 8 10 21 -2 17 -18 39
-12 27 7 -5 9 -3 9 8 1 24 -19 59 -24 59 -9 0 8 5 17 12 21 8 5 9 2 5 -9 -5
-14 1 -17 42 -17 34 0 51 5 55 15 6 18 1 19 -25 5 -29 -16 -23 5 7 25 15 9 24
13 20 7 -3 -5 2 -13 11 -16 15 -6 15 -8 3 -16 -21 -13 -9 -20 43 -24 l46 -3
-1 41 c0 25 -7 45 -17 53 -15 11 -15 12 2 13 9 0 17 -4 17 -10 0 -5 7 -10 15
-10 8 0 15 -5 15 -11 0 -5 -4 -7 -10 -4 -5 3 -10 1 -10 -4 0 -6 6 -11 13 -11
8 0 24 -11 37 -25 13 -14 30 -23 37 -21 7 3 15 1 18 -4 3 -5 16 -8 28 -6 12 3
25 5 30 5 13 2 7 30 -9 39 -12 7 -13 11 -5 17 8 4 16 -4 24 -24 8 -21 18 -31
32 -30 17 1 17 2 3 6 -25 6 -23 33 2 33 11 0 20 -3 20 -7 0 -5 4 -14 9 -22 7
-11 13 -10 32 8 12 11 28 21 33 20 6 0 5 -3 -1 -6 -7 -2 -13 -12 -13 -20 0
-11 7 -14 26 -9 17 5 23 3 19 -4 -3 -5 -1 -10 4 -10 15 0 14 26 -1 50 -10 16
-10 22 2 34 13 13 17 13 35 0 17 -12 18 -18 8 -44 -6 -17 -7 -31 -2 -31 48 -7
110 -2 114 9 6 16 26 16 23 0 -4 -16 180 -12 200 4 10 9 12 8 10 -2 -4 -17 70
-17 102 0 15 8 22 8 25 -2 8 -20 94 -13 112 9 13 17 14 16 8 -4 -4 -14 -2 -23
4 -23 6 0 11 5 11 12 0 6 3 8 7 5 3 -4 12 -2 20 4 10 9 13 8 13 -3 0 -7 9 -14
20 -15 11 -1 20 2 20 8 0 5 -5 9 -12 9 -8 0 -7 6 4 16 9 9 21 13 28 9 9 -6 9
-9 -1 -16 -9 -5 -4 -10 16 -15 33 -8 495 -12 495 -4 0 3 26 4 58 2 31 -1 113
-3 181 -4 114 -1 125 0 132 18 7 17 8 17 8 2 1 -16 21 -24 46 -18 6 1 15 2 20
2 58 -5 245 -3 254 2 6 4 11 3 11 -3 0 -10 19 -9 38 2 6 5 12 4 12 -2 0 -6 6
-8 14 -5 8 3 13 12 12 21 -3 19 -36 44 -47 37 -5 -3 -9 1 -9 9 0 8 -7 18 -16
21 -10 4 -13 13 -9 25 3 10 -1 24 -10 31 -9 8 -15 8 -15 2 0 -14 -42 -6 -55
10 -5 7 -21 15 -35 16 -30 5 -27 2 -32 32 -2 17 1 24 10 22 8 -1 12 3 9 10 -2
7 -11 12 -19 12 -10 -1 -14 5 -11 17 5 17 -1 19 -68 18 -41 0 -68 -3 -61 -6
17 -7 15 -58 -3 -73 -9 -8 -15 -8 -15 -2 0 6 -12 12 -27 14 -28 3 -33 15 -18
51 7 16 -2 17 -129 16 -96 0 -136 -4 -136 -12 0 -7 -4 -6 -10 3 -9 13 -11 13
-20 0 -6 -10 -10 -11 -10 -3 0 10 -45 13 -192 12 -185 -1 -194 -2 -211 -22
l-18 -22 11 23 11 23 -128 -3 c-115 -3 -128 -5 -125 -20 4 -22 -5 -23 -24 -3
-9 9 -11 15 -4 15 6 0 9 3 7 8 -3 4 -53 6 -112 4 l-106 -3 6 -29 c6 -28 6 -28
-35 -24 -26 3 -40 1 -36 -5 3 -5 -2 -7 -11 -5 -23 6 -125 -30 -115 -41 4 -4
-3 -1 -15 6 -13 8 -23 20 -23 28 0 11 -3 10 -13 -3 -13 -17 -14 -17 -20 -2 -5
12 1 20 18 28 27 12 44 41 18 31 -11 -4 -14 -2 -9 5 5 8 0 12 -13 12 -14 0
-21 -8 -24 -27 l-4 -28 -2 28 c-1 27 -3 28 -43 27 -24 -1 -47 -1 -53 0 -5 1
-23 2 -40 1 -16 -1 -42 -1 -56 -2 -17 0 -31 -9 -38 -22 l-11 -22 6 23 c5 22 4
23 -65 21 -40 -1 -74 -6 -77 -11 -3 -5 6 -7 20 -4 15 3 24 1 21 -5 -4 -5 4
-13 17 -18 18 -8 19 -10 5 -10 -11 -1 -17 -6 -14 -13 2 -7 9 -12 14 -11 5 1 9
-7 9 -18 0 -17 -2 -17 -15 -5 -8 8 -15 23 -16 33 -2 30 -14 41 -36 36 -17 -5
-20 -2 -15 13 6 21 -10 23 -116 16z m-178 -16 c0 -3 -4 -8 -10 -11 -5 -3 -10
-1 -10 4 0 6 5 11 10 11 6 0 10 -2 10 -4z m170 0 c0 -2 -7 -6 -15 -10 -8 -3
-15 -1 -15 4 0 6 7 10 15 10 8 0 15 -2 15 -4z m451 -31 c14 5 17 3 13 -10 -6
-14 -9 -14 -28 -2 -11 7 -27 17 -34 21 -7 4 -10 12 -6 17 3 6 12 1 21 -11 10
-14 21 -19 34 -15z m382 18 c-3 -7 -9 -10 -14 -7 -14 8 -11 21 5 21 8 0 12 -6
9 -14z m89 -10 c-3 -16 -7 -22 -10 -15 -4 13 4 42 11 42 2 0 2 -12 -1 -27z
m148 7 c-9 -6 -9 -9 -1 -13 8 -4 8 -5 0 -3 -7 1 -13 9 -15 18 -1 11 3 15 13
11 11 -4 12 -8 3 -13z m364 -3 c3 4 6 0 6 -9 0 -8 -7 -15 -15 -15 -8 0 -12 4
-10 8 6 9 -24 21 -36 13 -5 -3 -7 -9 -4 -14 3 -5 2 -11 -3 -14 -4 -2 -9 4 -9
15 -1 10 3 19 8 19 6 0 7 5 3 11 -3 6 7 4 24 -5 16 -8 32 -12 36 -9z m381 13
c3 -6 -1 -7 -9 -4 -18 7 -21 14 -7 14 6 0 13 -4 16 -10z m-1561 -15 c-4 -9 -1
-15 7 -15 8 0 5 -6 -7 -15 -23 -17 -34 -19 -34 -5 0 6 6 10 14 10 9 0 12 7 9
20 -3 11 0 20 6 20 5 0 8 -7 5 -15z m924 -10 c-6 -14 -15 -25 -20 -25 -9 0 -4
14 15 38 15 19 18 14 5 -13z m-1488 5 c0 -5 -4 -10 -9 -10 -6 0 -13 5 -16 10
-3 6 1 10 9 10 9 0 16 -4 16 -10z m1916 -5 c9 -8 11 -15 5 -15 -5 0 -13 5 -16
11 -5 7 -13 5 -24 -5 -10 -9 -21 -13 -24 -9 -12 11 -7 23 7 17 8 -3 17 -1 21
5 8 15 14 14 31 -4z m-3066 -5 c0 -5 -2 -10 -4 -10 -3 0 -8 5 -11 10 -3 6 -1
10 4 10 6 0 11 -4 11 -10z m1092 -6 c-9 -7 -19 -9 -22 -6 -3 4 -9 10 -13 13
-4 3 6 6 23 6 26 0 27 -2 12 -13z m251 1 c-3 -9 -8 -14 -10 -11 -3 3 -2 9 2
15 9 16 15 13 8 -4z m421 -9 c-3 -8 -1 -17 5 -21 6 -3 11 -15 11 -26 0 -11 5
-17 10 -14 6 3 10 2 10 -4 0 -5 -6 -12 -12 -14 -7 -3 -4 -6 7 -7 l20 -1 -20
-8 c-23 -10 -36 11 -28 46 4 18 1 22 -15 18 -15 -2 -19 1 -16 11 2 8 6 21 9
30 3 8 9 13 14 9 6 -3 8 -12 5 -19z m570 12 c-5 -8 -2 -9 9 -5 24 9 21 0 -4
-14 -15 -8 -19 -8 -15 0 4 6 1 11 -6 11 -9 0 -9 3 2 10 20 13 23 12 14 -2z
m-1024 -7 c0 -6 -4 -13 -10 -16 -5 -3 -10 1 -10 9 0 9 5 16 10 16 6 0 10 -4
10 -9z m121 -4 c-1 -12 -15 -9 -19 4 -3 6 1 10 8 8 6 -3 11 -8 11 -12z m1724
3 c3 -5 1 -10 -4 -10 -6 0 -11 5 -11 10 0 6 2 10 4 10 3 0 8 -4 11 -10z m-431
-19 c3 -5 -2 -15 -12 -22 -15 -12 -16 -12 -5 2 7 9 10 19 6 22 -3 4 -4 7 0 7
3 0 8 -4 11 -9z m266 -6 c0 -8 -4 -15 -10 -15 -5 0 -7 7 -4 15 4 8 8 15 10 15
2 0 4 -7 4 -15z m-2070 -5 c0 -5 -2 -10 -4 -10 -3 0 -8 5 -11 10 -3 6 -1 10 4
10 6 0 11 -4 11 -10z m1522 -32 c2 -20 0 -34 -4 -32 -5 3 -8 16 -8 30 0 24 -1
24 -25 8 -14 -9 -28 -14 -32 -11 -3 4 2 9 11 13 12 5 14 10 6 19 -8 10 -4 12
19 11 26 -1 30 -5 33 -38z m463 32 c3 -6 -1 -7 -9 -4 -18 7 -21 14 -7 14 6 0
13 -4 16 -10z m126 -7 c13 -16 12 -17 -3 -4 -10 7 -18 15 -18 17 0 8 8 3 21
-13z m49 7 c0 -5 -2 -10 -4 -10 -3 0 -8 5 -11 10 -3 6 -1 10 4 10 6 0 11 -4
11 -10z m-1905 -10 c3 -6 -1 -7 -9 -4 -18 7 -21 14 -7 14 6 0 13 -4 16 -10z
m520 0 c3 -5 1 -10 -4 -10 -6 0 -11 5 -11 10 0 6 2 10 4 10 3 0 8 -4 11 -10z
m1198 -15 c4 -8 -2 -12 -18 -11 -16 1 -20 5 -14 12 5 6 6 14 2 18 -4 4 0 4 9
1 9 -4 19 -12 21 -20z m340 10 c-3 -9 -8 -14 -10 -11 -3 3 -2 9 2 15 9 16 15
13 8 -4z m-1626 -2 c-4 -3 -2 -12 4 -20 8 -9 8 -13 1 -13 -6 0 -14 5 -17 10
-10 16 -28 12 -22 -4 4 -11 1 -13 -10 -9 -10 4 -14 2 -10 -4 3 -5 0 -10 -8
-10 -9 0 -7 8 8 29 11 15 30 28 41 28 10 0 16 -3 13 -7z m727 -6 c4 4 4 0 1
-10 -6 -14 -9 -14 -21 -2 -18 17 -18 31 -1 16 8 -6 17 -8 21 -4z m160 -3 c20
-19 22 -62 4 -47 -7 6 -20 13 -28 17 -8 3 -5 4 8 2 26 -5 28 0 8 20 -17 17
-30 19 -20 2 4 -7 3 -8 -4 -4 -7 4 -12 11 -12 17 0 14 27 11 44 -7z m-1514
-25 c0 -5 -5 -9 -12 -9 -6 0 -8 3 -5 7 4 3 1 13 -6 22 -11 14 -10 14 6 2 9 -7
17 -17 17 -22z m360 6 c-10 -12 -10 -15 0 -15 8 0 10 -3 7 -7 -4 -3 -2 -12 3
-18 8 -9 6 -14 -5 -18 -9 -4 -12 -13 -9 -24 5 -16 4 -16 -6 1 -10 14 -10 20 0
26 10 6 8 11 -7 20 -19 13 -19 13 1 34 23 24 36 25 16 1z m405 15 c-3 -5 -21
-9 -38 -9 l-32 2 35 7 c19 4 36 8 38 9 2 0 0 -3 -3 -9z m945 0 c0 -5 -2 -10
-4 -10 -3 0 -8 5 -11 10 -3 6 -1 10 4 10 6 0 11 -4 11 -10z m585 0 c3 -5 1
-10 -4 -10 -6 0 -11 5 -11 10 0 6 2 10 4 10 3 0 8 -4 11 -10z m-2085 -10 c0
-5 -8 -10 -17 -10 -15 0 -16 2 -3 10 19 12 20 12 20 0z m854 -11 c-9 -10 -13
-23 -8 -31 4 -7 -2 -4 -13 7 -19 19 -19 20 -1 23 10 2 16 7 14 11 -3 4 1 8 9
8 13 0 13 -3 -1 -18z m1046 9 c0 -4 -9 -8 -20 -8 -11 0 -20 4 -20 9 0 6 9 9
20 8 11 -1 20 -5 20 -9z m-2210 -13 c0 -8 -2 -15 -4 -15 -2 0 -6 7 -10 15 -3
8 -1 15 4 15 6 0 10 -7 10 -15z m258 0 c3 -3 -4 -5 -16 -5 -11 0 -23 4 -27 9
-6 10 33 6 43 -4z m82 0 c0 -8 -7 -15 -16 -15 -14 0 -14 3 -4 15 7 8 14 15 16
15 2 0 4 -7 4 -15z m237 9 c-3 -3 -12 -4 -19 -1 -8 3 -5 6 6 6 11 1 17 -2 13
-5z m55 -16 c-7 -7 -12 -8 -12 -2 0 6 3 14 7 17 3 4 9 5 12 2 2 -3 -1 -11 -7
-17z m476 4 c2 -7 -5 -12 -15 -11 -12 0 -14 2 -4 6 11 5 11 7 0 15 -12 8 -12
9 0 6 8 -3 17 -10 19 -16z m183 -5 c-10 -9 -11 -8 -5 6 3 10 9 15 12 12 3 -3
0 -11 -7 -18z m135 3 c0 -11 -1 -20 -3 -20 -1 0 -7 9 -13 20 -8 15 -8 20 3 20
7 0 13 -9 13 -20z m1171 -17 c-3 -3 -11 -2 -17 2 -8 5 -7 11 2 22 12 15 13 14
16 -1 2 -10 1 -20 -1 -23z m-2632 9 c-3 -3 -11 0 -18 7 -9 10 -8 11 6 5 10 -3
15 -9 12 -12z m1527 -4 c-9 -9 -15 -9 -24 1 -11 10 -10 11 5 6 10 -5 17 -2 17
6 0 7 3 9 7 6 4 -4 1 -13 -5 -19z m206 -1 c17 -13 15 -24 -6 -29 -22 -6 -47
11 -48 33 -1 18 29 15 54 -4z m-2018 -9 c10 -21 10 -21 -3 -6 -8 10 -16 15
-19 12 -4 -3 -9 -1 -13 5 -3 6 1 11 9 11 8 0 20 -10 26 -22z m370 12 c0 -5 -2
-10 -4 -10 -3 0 -8 5 -11 10 -3 6 -1 10 4 10 6 0 11 -4 11 -10z m130 -5 c0 -2
-9 -3 -19 -2 -11 0 -18 5 -15 9 4 6 34 0 34 -7z m400 5 c0 -5 -7 -10 -15 -10
-9 0 -12 -6 -9 -17 4 -11 2 -14 -3 -8 -4 6 -12 13 -17 17 -7 6 16 21 42 27 1
1 2 -3 2 -9z m667 -10 c3 -10 2 -11 -4 -4 -4 6 -15 14 -23 17 -11 5 -9 6 4 4
11 -1 21 -9 23 -17z m543 11 c0 -6 -4 -12 -8 -15 -5 -3 -9 1 -9 9 0 8 4 15 9
15 4 0 8 -4 8 -9z m160 1 c0 -13 -12 -22 -22 -16 -10 6 -1 24 13 24 5 0 9 -4
9 -8z m283 -9 c-7 -3 -11 -10 -9 -16 1 -7 1 -9 -1 -4 -3 4 -9 4 -15 1 -5 -3
-4 3 3 14 7 12 18 18 23 15 6 -4 6 -8 -1 -10z m-1164 -2 c22 -1 5 -13 -22 -16
-14 -2 -24 2 -24 10 0 7 7 11 16 10 9 -2 22 -4 30 -4z m-1269 -11 c0 -5 -5
-10 -11 -10 -5 0 -7 5 -4 10 3 6 8 10 11 10 2 0 4 -4 4 -10z m560 -5 c0 -8 -2
-15 -4 -15 -2 0 -6 7 -10 15 -3 8 -1 15 4 15 6 0 10 -7 10 -15z m23 0 c-3 -9
-8 -14 -10 -11 -3 3 -2 9 2 15 9 16 15 13 8 -4z m920 -4 c3 -11 -1 -22 -8 -24
-8 -4 -10 3 -7 19 5 29 8 30 15 5z m739 1 c-7 -2 -10 -8 -6 -13 3 -5 0 -9 -5
-9 -13 0 -13 3 -5 24 3 9 11 13 17 9 8 -5 7 -8 -1 -11z m321 5 c18 4 19 3 7
-6 -23 -16 -40 -13 -39 7 0 9 3 12 5 6 3 -7 15 -10 27 -7z m-1026 -3 c-3 -3
-12 -4 -19 -1 -8 3 -5 6 6 6 11 1 17 -2 13 -5z m768 -4 c3 -5 1 -10 -4 -10 -6
0 -11 5 -11 10 0 6 2 10 4 10 3 0 8 -4 11 -10z m-2175 -10 c0 -5 -4 -10 -10
-10 -5 0 -10 5 -10 10 0 6 5 10 10 10 6 0 10 -4 10 -10z m1246 1 c-4 -5 -1
-11 6 -13 7 -3 8 -9 3 -18 -7 -11 -10 -10 -15 6 -7 18 -4 34 6 34 3 0 3 -4 0
-9z m64 -18 c-17 -12 -24 -13 -33 -3 -9 9 -9 11 -1 7 7 -4 17 0 24 8 7 8 17
12 22 9 5 -3 0 -13 -12 -21z m576 3 c-1 -18 -4 -22 -13 -14 -10 8 -10 13 0 23
7 8 13 14 13 15 1 0 1 -11 0 -24z m48 11 c4 4 4 0 0 -10 -5 -15 -24 -25 -24
-13 0 2 -3 13 -7 23 -6 15 -4 16 9 6 8 -7 18 -10 22 -6z m141 -11 c0 -32 -7
-37 -23 -20 -8 9 -9 14 -2 14 6 0 9 4 6 9 -4 5 0 12 6 14 7 3 13 6 13 6 1 1 1
-10 0 -23z m62 2 c-3 -8 -6 -5 -6 6 -1 11 2 17 5 13 3 -3 4 -12 1 -19z m178 2
c-3 -5 -12 -10 -18 -10 -7 0 -6 4 3 10 19 12 23 12 15 0z m535 6 c0 -3 -4 -8
-10 -11 -5 -3 -10 -1 -10 4 0 6 5 11 10 11 6 0 10 -2 10 -4z m-2193 -12 c-3
-3 -12 -4 -19 -1 -8 3 -5 6 6 6 11 1 17 -2 13 -5z m477 -13 c3 -4 -4 -7 -14
-8 -10 -1 -21 4 -23 12 -4 9 1 11 14 8 11 -3 21 -8 23 -12z m412 1 c-3 -3 -1
-11 5 -18 17 -21 -7 -25 -26 -4 -19 21 -12 42 11 33 8 -3 12 -8 10 -11z m729
-2 c14 -16 20 -17 27 -8 6 10 8 9 8 -3 0 -11 -8 -16 -24 -16 -15 0 -23 4 -20
12 3 6 -5 17 -18 23 -16 7 -18 11 -7 11 9 1 24 -8 34 -19z m722 3 c0 -7 -5
-12 -11 -10 -15 5 -18 24 -3 24 8 0 14 -6 14 -14z m-2907 3 c0 -3 -4 -8 -10
-11 -5 -3 -10 -1 -10 4 0 6 5 11 10 11 6 0 10 -2 10 -4z m1360 -6 c0 -5 -5
-10 -11 -10 -5 0 -7 5 -4 10 3 6 8 10 11 10 2 0 4 -4 4 -10z m350 0 c0 -5 -4
-10 -9 -10 -6 0 -13 5 -16 10 -3 6 1 10 9 10 9 0 16 -4 16 -10z m-1440 -14
c-4 -4 -16 -4 -26 2 -16 9 -14 10 8 9 15 -1 23 -6 18 -11z m146 -11 c1 -8 -5
-15 -13 -15 -12 0 -13 3 -4 13 6 8 9 17 6 20 -3 4 -2 5 2 2 4 -3 8 -12 9 -20z
m134 0 c-14 -17 -30 -20 -30 -5 0 6 7 10 15 10 8 0 15 5 15 12 0 6 3 8 6 5 4
-4 1 -13 -6 -22z m1510 5 c0 -5 -2 -10 -4 -10 -3 0 -8 5 -11 10 -3 6 -1 10 4
10 6 0 11 -4 11 -10z m-1920 -10 c0 -5 -5 -10 -11 -10 -5 0 -7 5 -4 10 3 6 8
10 11 10 2 0 4 -4 4 -10z m870 0 c0 -5 -4 -10 -10 -10 -5 0 -10 5 -10 10 0 6
5 10 10 10 6 0 10 -4 10 -10z m250 -6 c0 -2 -7 -4 -15 -4 -8 0 -15 4 -15 10 0
5 7 7 15 4 8 -4 15 -8 15 -10z m645 6 c8 -13 -5 -13 -25 0 -13 8 -13 10 2 10
9 0 20 -4 23 -10z m200 -8 c-3 -3 -11 0 -18 7 -9 10 -8 11 6 5 10 -3 15 -9 12
-12z m155 8 c0 -5 -5 -10 -11 -10 -5 0 -7 5 -4 10 3 6 8 10 11 10 2 0 4 -4 4
-10z m155 0 c3 -5 1 -10 -4 -10 -6 0 -11 5 -11 10 0 6 2 10 4 10 3 0 8 -4 11
-10z"/>
<path d="M6988 3434 c-3 -3 -65 -5 -138 -5 -115 1 -135 -2 -146 -17 -19 -25
-17 -54 4 -51 36 3 52 -2 52 -16 0 -9 11 -21 25 -27 30 -13 39 -39 37 -96 -1
-24 2 -41 7 -38 5 3 11 -3 14 -14 5 -18 14 -20 94 -21 48 -1 93 0 98 1 6 1 30
2 55 2 25 1 37 3 28 5 -16 4 -21 14 -33 75 -2 10 2 21 7 25 7 3 8 1 4 -5 -5
-9 4 -11 31 -7 21 3 46 2 56 -1 16 -5 16 -7 4 -17 -24 -19 -47 -61 -39 -72 11
-16 62 -13 62 3 0 9 -6 12 -16 8 -8 -3 -12 -2 -9 4 9 15 35 12 35 -4 0 -8 13
-16 30 -18 36 -5 50 8 19 17 -19 6 -20 9 -6 23 20 19 77 24 77 6 0 -8 -7 -11
-17 -8 -13 4 -11 0 6 -15 15 -14 38 -21 65 -22 22 0 76 -1 118 -2 43 -1 78 1
78 6 0 4 -6 7 -13 7 -8 0 -22 9 -32 20 -14 15 -15 20 -4 20 11 0 11 2 -1 10
-21 13 0 31 41 36 18 2 35 7 38 10 3 4 -4 5 -16 2 -19 -5 -20 -4 -10 14 21 33
143 16 130 -19 -6 -14 6 -17 22 -5 23 16 -5 60 -29 45 -5 -4 -6 -1 0 8 4 8 8
22 9 33 0 10 8 24 18 30 15 9 21 7 33 -9 8 -11 16 -18 17 -17 1 2 13 -1 27 -8
23 -10 25 -16 24 -68 -1 -47 -5 -61 -27 -84 -15 -15 -27 -28 -27 -30 0 -2 64
-2 143 -1 78 1 191 2 250 2 107 1 108 1 105 24 -2 13 -12 36 -22 52 -10 15
-18 39 -18 52 0 12 -4 23 -9 23 -5 0 -9 6 -9 14 0 7 -7 19 -16 26 -8 8 -14 9
-12 4 6 -20 -93 -100 -111 -90 -14 9 -20 56 -6 56 12 0 43 29 45 42 0 4 3 15
6 23 8 19 -23 55 -46 55 -9 0 -21 -5 -28 -12 -9 -9 -12 -9 -12 0 0 7 -13 12
-30 12 -20 0 -28 -4 -24 -13 2 -7 -5 -23 -17 -36 l-21 -22 -19 20 c-10 11 -16
27 -13 36 6 14 -41 15 -455 15 -254 0 -466 2 -470 4 -5 3 -11 3 -13 0z m-43
-104 c3 -5 1 -10 -4 -10 -6 0 -11 5 -11 10 0 6 2 10 4 10 3 0 8 -4 11 -10z
m1033 -52 c17 -17 15 -26 -5 -24 -18 1 -33 14 -33 29 0 11 25 8 38 -5z m-58
-63 c-6 -7 -8 -20 -4 -29 3 -9 1 -16 -5 -16 -12 0 -14 14 -5 47 4 13 10 20 16
17 5 -3 5 -11 -2 -19z"/>
<path d="M4960 3413 c0 -16 17 -16 55 2 l30 14 -42 -1 c-28 -1 -43 -7 -43 -15z"/>
<path d="M9126 3415 c25 -19 41 -19 41 0 0 10 -10 15 -31 15 -28 0 -29 -1 -10
-15z"/>
<path d="M7624 3179 c-13 -22 20 -35 71 -28 28 3 40 7 29 7 -12 1 -27 9 -34
17 -14 17 -56 20 -66 4z"/>
<path d="M8945 3180 c-3 -5 -1 -10 4 -10 6 0 11 5 11 10 0 6 -2 10 -4 10 -3 0
-8 -4 -11 -10z"/>
<path d="M10047 3183 c-12 -11 -8 -31 8 -36 8 -4 16 -3 19 1 6 10 -20 43 -27
35z"/>
<path d="M9450 3169 c0 -5 9 -9 20 -9 11 0 20 2 20 4 0 2 -9 6 -20 9 -11 3
-20 1 -20 -4z"/>
<path d="M1531 3161 c-8 -5 -9 -11 -3 -15 6 -3 13 -2 17 3 3 6 12 8 20 4 8 -3
15 0 15 6 0 13 -29 14 -49 2z"/>
<path d="M2972 3163 c-19 -8 -4 -22 18 -16 11 3 17 9 14 14 -6 10 -12 10 -32
2z"/>
<path d="M2930 3150 c0 -5 5 -10 10 -10 6 0 10 5 10 10 0 6 -4 10 -10 10 -5 0
-10 -4 -10 -10z"/>
<path d="M8645 3150 c-3 -6 1 -7 9 -4 18 7 21 14 7 14 -6 0 -13 -4 -16 -10z"/>
</g>
</svg>
